<?xml version="1.0" encoding="utf-8"?>
<!-- Generator: Adobe Illustrator 22.1.0, SVG Export Plug-In . SVG Version: 6.00 Build 0)  -->
<svg version="1.1" id="Multicolor" xmlns="http://www.w3.org/2000/svg" xmlns:xlink="http://www.w3.org/1999/xlink" x="0px" y="0px"
	 viewBox="0 0 100 112" style="enable-background:new 0 0 100 112;" xml:space="preserve">
<style type="text/css">
	.mlc0{fill:#E8F4FA;}
	.mlc1{fill:#FFFFFF;}
	.mlc2{fill:none;stroke:#191816;stroke-linecap:round;stroke-linejoin:round;}
	.mlc3{opacity:0.15;fill:#191816;enable-background:new    ;}
	.mlc4{fill:#1E90FF;stroke:#191816;stroke-linecap:round;stroke-linejoin:round;}
	.mlc5{fill:#E8F4FA;stroke:#191816;stroke-linecap:round;stroke-linejoin:round;}
	.mlc6{fill:#2ED573;}
	.mlc7{fill:#FFFFFF;stroke:#191816;stroke-linecap:round;stroke-linejoin:round;}
	.mlc8{fill:#191816;}
	.mlc9{fill:#DAEDF7;}
	.mlc10{fill:#C0DCEB;}
	.mlc11{fill:#FFA502;stroke:#191816;stroke-linecap:round;stroke-linejoin:round;}
	.mlc12{fill:#FC6376;}
	.mlc13{fill:#F98592;}
	.mlc14{fill:#BA3846;stroke:#191816;stroke-linecap:round;stroke-linejoin:round;}
	.mlc15{fill:#3DE882;}
</style>
<title>02- map-location-computer</title>
<g id="Background">
	<g id="New_Symbol_79">
		<path class="mlc0" d="M89.8,56c0-22.1-17.9-40-40-40s-40,17.9-40,40c0,5.7,1.2,11.3,3.6,16.5h72.9C88.6,67.3,89.8,61.7,89.8,56z"/>
		<path class="mlc1" d="M13.4,72.5c9.1,20.1,32.8,29,52.9,19.9c8.8-4,15.9-11.1,19.9-19.9H13.4z"/>
		<line class="mlc2" x1="10.3" y1="72.5" x2="88.3" y2="72.5"/>
		<line class="mlc2" x1="5.8" y1="72.5" x2="8.3" y2="72.5"/>
		<line class="mlc2" x1="90.3" y1="72.5" x2="92.8" y2="72.5"/>
	</g>
</g>
<g id="Scene">
	<ellipse class="mlc3" cx="49.2" cy="82.6" rx="23.8" ry="2"/>
	<path class="mlc4" d="M73,66.7V41.3c0-1.8-1.4-3.2-3.2-3.2H28.5c-1.8,0-3.2,1.4-3.2,3.2v25.4H73z"/>
	<path class="mlc5" d="M73,66.7v4.8c0,1.8-1.4,3.2-3.2,3.2H28.5c-1.8,0-3.2-1.4-3.2-3.2v-4.8H73z"/>
	<path class="mlc6" d="M47.6,38.2h-19c-1.8,0-3.2,1.4-3.2,3.2v19L47.6,38.2z"/>
	<polygon class="mlc7" points="46.8,48.5 65,66.7 53.9,66.7 41.2,54 	"/>
	<polygon class="mlc4" points="28.5,66.7 41.2,54 53.9,66.7 	"/>
	<path class="mlc8" d="M49.1,70.4c0.2,0,0.3,0.1,0.3,0.3c0,0.2-0.1,0.3-0.3,0.3s-0.3-0.1-0.3-0.3l0,0C48.8,70.5,49,70.4,49.1,70.4
		 M49.1,69.4c-0.7,0.1-1.3,0.7-1.2,1.4c0.1,0.6,0.6,1.2,1.2,1.2c0.7,0.1,1.4-0.5,1.4-1.2c0.1-0.7-0.5-1.4-1.2-1.4
		C49.3,69.4,49.2,69.4,49.1,69.4z"/>
	<polygon class="mlc9" points="57.1,81 41.2,81 42,74.7 56.3,74.7 	"/>
	<polygon class="mlc10" points="56.7,78 56.3,74.7 42,74.7 41.6,78 	"/>
	<polygon class="mlc2" points="57.1,81.3 41.2,81.3 42,74.7 56.3,74.7 	"/>
	<polygon class="mlc11" points="57.1,38.2 28.5,66.7 25.3,66.7 25.3,60.4 47.6,38.2 	"/>
	<path class="mlc12" d="M65,27.1c5.3,0,9.5,4.3,9.5,9.5c0,4.2-6,12.2-8.5,15.4c-0.5,0.6-1.3,0.7-1.9,0.2C64,52.1,64,52.1,63.9,52
		c-2.5-3.1-8.5-11.2-8.5-15.4C55.5,31.4,59.7,27.1,65,27.1L65,27.1z"/>
	<path class="mlc13" d="M65,29.7c4.7,0,8.6,3.4,9.4,8c0.1-0.4,0.1-0.7,0.1-1.1c-0.2-5.3-4.6-9.4-9.8-9.2c-5,0.2-9.1,4.2-9.2,9.2
		c0,0.4,0.1,0.8,0.1,1.1C56.4,33.1,60.3,29.7,65,29.7z"/>
	<path class="mlc2" d="M65,27.1c5.3,0,9.5,4.3,9.5,9.5c0,4.2-6,12.2-8.5,15.4c-0.5,0.6-1.3,0.7-1.9,0.2C64,52.1,64,52.1,63.9,52
		c-2.5-3.1-8.5-11.2-8.5-15.4C55.5,31.4,59.7,27.1,65,27.1L65,27.1z"/>
	<circle class="mlc14" cx="65" cy="36.6" r="4"/>
	<path class="mlc15" d="M39.6,38.2H28.5c-1.8,0-3.2,1.4-3.2,3.2v11.9L39.6,38.2z"/>
	<path class="mlc2" d="M47.6,38.2h-19c-1.8,0-3.2,1.4-3.2,3.2v19L47.6,38.2z"/>
	<line class="mlc2" x1="36.6" y1="81.3" x2="61.7" y2="81.3"/>
</g>
</svg>
