<?xml version="1.0" encoding="utf-8"?>
<!-- Generator: Adobe Illustrator 22.1.0, SVG Export Plug-In . SVG Version: 6.00 Build 0)  -->
<svg version="1.1" id="Multicolor" xmlns="http://www.w3.org/2000/svg" xmlns:xlink="http://www.w3.org/1999/xlink" x="0px" y="0px"
	 viewBox="0 0 100 112" style="enable-background:new 0 0 100 112;" xml:space="preserve">
<style type="text/css">
	.vo0{fill:#E8F4FA;}
	.vo1{fill:#627B8C;}
	.vo2{fill:#FFFFFF;}
	.vo3{fill:none;stroke:#191816;stroke-linecap:round;stroke-linejoin:round;}
	.vo4{fill:none;stroke:#ADC4D9;stroke-linecap:round;stroke-linejoin:round;}
	.vo5{fill:#FFA502;}
	.vo6{fill:#FCC670;}
	.vo7{fill:#FFFFFF;stroke:#191816;stroke-linejoin:round;}
</style>
<title>34- volcano</title>
<g id="Background">
	<g id="New_Symbol_1-9">
		<circle class="vo0" cx="49.8" cy="56" r="40"/>
	</g>
</g>
<g id="Scene">
	<path class="vo1" d="M25.4,67.7h50.4c0,0-9.9-6.6-16.1-12.7l0,0l-3.4,3.4c-0.4,0.4-1,0.4-1.4,0l-3.6-3.6c-0.4-0.4-1-0.4-1.4,0
		l-3.6,3.6c-0.4,0.4-1,0.4-1.4,0l-3.4-3.4C35.3,61.1,25.4,67.7,25.4,67.7z"/>
	<path class="vo0" d="M51.3,54.7l3.6,3.6c0.4,0.4,1,0.4,1.4,0c0,0,0,0,0,0l3.4-3.4l0,0c-2.2-2.2-3.9-4.3-4.5-6.1
		c-0.3-0.8-1-1.3-1.8-1.3h-5.5c-0.8,0-1.6,0.6-1.8,1.3c-0.6,1.8-2.3,3.9-4.5,6.1l3.4,3.4c0.4,0.4,1,0.4,1.4,0c0,0,0,0,0,0l3.6-3.6
		C50.3,54.3,50.9,54.3,51.3,54.7C51.3,54.7,51.3,54.7,51.3,54.7z"/>
	<path class="vo2" d="M56,50.5c-0.3-0.5-0.6-1.1-0.8-1.7c-0.3-0.8-1-1.3-1.8-1.3h-5.5c-0.8,0-1.6,0.6-1.8,1.3
		c-0.2,0.6-0.5,1.1-0.8,1.7H56z"/>
	<path class="vo3" d="M59.7,54.9c-2.2-2.2-3.9-4.3-4.5-6.1c-0.3-0.8-1-1.3-1.8-1.3h-5.5c-0.8,0-1.6,0.6-1.8,1.3
		c-0.6,1.8-2.4,3.9-4.5,6.1c-6.2,6.2-16.1,12.7-16.1,12.7h50.4C75.8,67.7,65.9,61.1,59.7,54.9z"/>
	<path class="vo3" d="M41.5,54.9l3.4,3.4c0.4,0.4,1,0.4,1.4,0l3.6-3.6c0.4-0.4,1-0.4,1.4,0l3.6,3.6c0.4,0.4,1,0.4,1.4,0l3.4-3.4"/>
	<path class="vo0" d="M81.6,68.5c-0.9,0-1.8,0.3-2.5,0.9c-0.7-0.7-1.6-1.1-2.5-1.1h-0.1c-0.4-2.7-2.9-4.7-5.6-4.3
		c-1.5,0.2-2.9,1.1-3.6,2.4c-1.7-1.3-4.1-1.3-5.9,0c-1.4-2.4-4.5-3.1-6.9-1.7c-0.7,0.4-1.3,1-1.7,1.7c-1.7-1.3-4.1-1.3-5.9,0
		c-1.4-2.4-4.5-3.1-6.9-1.7c-0.7,0.4-1.3,1-1.7,1.7c-1.7-1.3-4.1-1.3-5.9,0c-1.4-2.4-4.5-3.1-6.9-1.7c-1.3,0.8-2.2,2.1-2.4,3.6h-0.1
		c-1,0-1.9,0.4-2.5,1.1c-0.7-0.6-1.6-0.9-2.5-0.9c-1.8,0-3.4,1.2-3.9,3c-0.4,0-0.8,0.1-1.1,0.3c8.7,20.3,32.2,29.7,52.5,21
		c9.4-4,16.9-11.5,21-21c-0.4-0.1-0.8-0.2-1.2-0.3C85,69.7,83.4,68.5,81.6,68.5z"/>
	<path class="vo2" d="M14,73.7c0.2,0,0.4-0.2,0.5-0.4c0.7-2.1,3-3.1,5-2.4c0.3,0.1,0.6,0.2,0.8,0.4c0.2,0.2,0.6,0.2,0.8,0
		c0.5-0.4,1.1-0.6,1.7-0.7c0.3,0,0.6-0.2,0.6-0.5c0.7-2.7,3.4-4.3,6.1-3.6c1.1,0.3,2.1,0.9,2.7,1.8c0.2,0.2,0.5,0.3,0.7,0.2
		c0.8-0.4,1.6-0.7,2.5-0.7c0.8,0,1.6,0.2,2.4,0.6c0.3,0.2,0.7,0.1,0.9-0.2c1.7-2.1,4.9-2.5,7-0.7c0.3,0.2,0.5,0.5,0.7,0.7
		c0.2,0.3,0.6,0.3,0.9,0.2c0.7-0.4,1.6-0.6,2.4-0.6c0.8,0,1.6,0.2,2.3,0.6c0.3,0.2,0.8,0.1,1-0.2c1.7-2.1,4.9-2.5,7-0.7
		c0.3,0.2,0.5,0.5,0.7,0.7c0.2,0.3,0.6,0.3,0.9,0.2c0.7-0.4,1.6-0.6,2.4-0.6c0.8,0,1.5,0.2,2.2,0.5c0.4,0.2,0.9,0.1,1.1-0.2
		c1.8-2.1,5-2.3,7-0.5c0.8,0.7,1.3,1.6,1.6,2.5c0.1,0.3,0.3,0.5,0.6,0.5c0.6,0.1,1.1,0.3,1.6,0.6c0.3,0.2,0.7,0.2,1,0
		c0.6-0.4,1.3-0.6,2-0.6c1.7,0,3.2,1.1,3.8,2.7c0.1,0.2,0.3,0.4,0.5,0.4c0.3-0.6,0.6-1.3,0.9-1.9c-0.4-0.1-0.8-0.2-1.2-0.3
		c-0.6-2.1-2.7-3.4-4.9-2.9C80,68.7,79.5,69,79,69.4c-0.7-0.7-1.6-1.1-2.5-1.1h-0.1c-0.4-2.7-2.9-4.7-5.6-4.3
		c-1.5,0.2-2.9,1.1-3.6,2.4c-1.7-1.3-4.1-1.3-5.9,0c-1.4-2.4-4.5-3.1-6.9-1.7c-0.7,0.4-1.3,1-1.7,1.7c-1.7-1.3-4.1-1.3-5.9,0
		c-1.4-2.4-4.5-3.1-6.9-1.7c-0.7,0.4-1.3,1-1.7,1.7c-1.7-1.3-4.1-1.3-5.9,0c-1.4-2.4-4.5-3.1-6.9-1.7c-1.3,0.8-2.2,2.1-2.4,3.6h0
		c-1,0-1.9,0.4-2.5,1.1c-0.7-0.6-1.6-0.9-2.5-0.9c-1.8,0-3.4,1.2-3.9,3c-0.4,0-0.8,0.1-1.1,0.3C13.4,72.4,13.7,73,14,73.7L14,73.7z"
		/>
	<path class="vo3" d="M85.4,71.5c-0.5-2.1-2.7-3.4-4.9-2.9C80,68.8,79.5,69,79,69.4c-0.7-0.7-1.6-1.1-2.5-1.1h-0.1
		c-0.4-2.7-2.9-4.7-5.6-4.3c-1.5,0.2-2.9,1.1-3.6,2.4c-1.7-1.3-4.1-1.3-5.9,0c-1.4-2.4-4.5-3.1-6.9-1.7c-0.7,0.4-1.3,1-1.7,1.7
		c-1.7-1.3-4.1-1.3-5.9,0c-1.4-2.4-4.5-3.1-6.9-1.7c-0.7,0.4-1.3,1-1.7,1.7c-1.7-1.3-4.1-1.3-5.9,0c-1.4-2.4-4.5-3.1-6.9-1.7
		c-1.3,0.8-2.2,2.1-2.4,3.6h0c-1,0-1.9,0.4-2.5,1.1c-0.7-0.6-1.6-0.9-2.5-0.9c-1.8,0-3.4,1.2-3.9,3"/>
	<path class="vo4" d="M37.8,80.5c0-1.7-1.3-3-3-3c-0.4,0-0.9,0.1-1.2,0.3c-0.7-1.8-2.7-2.7-4.5-2.1c-1.2,0.5-2.1,1.6-2.2,2.9
		c-0.2-0.1-0.4-0.1-0.5-0.1c-1.1,0-2,0.9-2,2"/>
	<path class="vo4" d="M63.3,83.7c0-1.2,1-2.2,2.2-2.2c0.3,0,0.6,0.1,0.9,0.2c0.5-1.3,1.9-2,3.3-1.6c0.9,0.3,1.6,1.2,1.7,2.2
		c0.1,0,0.3-0.1,0.4-0.1c0.8,0,1.5,0.7,1.5,1.5"/>
	<path class="vo4" d="M57.3,77.5c0-1.4-1.1-2.5-2.5-2.5c-0.3,0-0.7,0.1-1,0.2c-1-1.7-3.1-2.2-4.8-1.2c-1.1,0.6-1.7,1.8-1.7,3"/>
	<circle class="vo5" cx="32.6" cy="38.2" r="6"/>
	<path class="vo6" d="M32.6,35c2.8,0,5.2,1.9,5.8,4.6c0.1-0.5,0.2-0.9,0.2-1.4c0-3.3-2.7-6-6-6s-6,2.7-6,6c0,0.5,0.1,0.9,0.2,1.4
		C27.4,36.9,29.9,35,32.6,35z"/>
	<circle class="vo3" cx="32.6" cy="38.2" r="6"/>
	<line class="vo3" x1="32.6" y1="29.8" x2="32.6" y2="28"/>
	<line class="vo3" x1="38.6" y1="32.3" x2="39.8" y2="31"/>
	<line class="vo3" x1="41" y1="38.2" x2="42.8" y2="38.2"/>
	<line class="vo3" x1="38.6" y1="44.1" x2="39.8" y2="45.4"/>
	<line class="vo3" x1="32.6" y1="46.6" x2="32.6" y2="48.4"/>
	<line class="vo3" x1="26.7" y1="44.1" x2="25.4" y2="45.4"/>
	<line class="vo3" x1="24.2" y1="38.2" x2="22.4" y2="38.2"/>
	<line class="vo3" x1="26.7" y1="32.3" x2="25.4" y2="31"/>
	<path class="vo7" d="M73.9,38.2c-0.3,0-0.6,0.1-0.9,0.2c-0.4-2.2-2.5-3.6-4.7-3.2c-1.6,0.3-2.9,1.6-3.2,3.2
		c-0.3-0.1-0.6-0.2-0.9-0.2c-1.3,0-2.4,1.1-2.4,2.4c0,1.3,1.1,2.4,2.4,2.4h9.6c1.3,0,2.4-1.1,2.4-2.4C76.3,39.3,75.3,38.2,73.9,38.2
		C73.9,38.2,73.9,38.2,73.9,38.2z"/>
	<path class="vo7" d="M73.9,38.2c-0.3,0-0.6,0.1-0.9,0.2c-0.4-2.2-2.5-3.6-4.7-3.2c-1.6,0.3-2.9,1.6-3.2,3.2
		c-0.3-0.1-0.6-0.2-0.9-0.2c-1.3,0-2.4,1.1-2.4,2.4c0,1.3,1.1,2.4,2.4,2.4h9.6c1.3,0,2.4-1.1,2.4-2.4C76.3,39.3,75.3,38.2,73.9,38.2
		C73.9,38.2,73.9,38.2,73.9,38.2z"/>
</g>
</svg>
