<?xml version="1.0" encoding="utf-8"?>
<!-- Generator: Adobe Illustrator 22.1.0, SVG Export Plug-In . SVG Version: 6.00 Build 0)  -->
<svg version="1.1" id="Multicolor" xmlns="http://www.w3.org/2000/svg" xmlns:xlink="http://www.w3.org/1999/xlink" x="0px" y="0px"
	 viewBox="0 0 100 112" style="enable-background:new 0 0 100 112;" xml:space="preserve">
<style type="text/css">
	.hmc0{fill:#E8F4FA;}
	.hmc1{fill:#FFFFFF;}
	.hmc2{fill:none;stroke:#191816;stroke-linecap:round;stroke-linejoin:round;}
	.hmc3{fill:#FFA502;}
	.hmc4{fill:#FCC670;}
	.hmc5{fill:#FFA502;stroke:#191816;stroke-linecap:round;stroke-linejoin:round;}
	.hmc6{fill:#BF8256;stroke:#191816;stroke-linecap:round;stroke-linejoin:round;}
	.hmc7{fill:#FF4757;stroke:#191816;stroke-linecap:round;stroke-linejoin:round;}
	.hmc8{fill:#FFFFFF;stroke:#191816;stroke-linecap:round;stroke-linejoin:round;}
	.hmc9{opacity:0.15;fill:#191816;enable-background:new    ;}
	.hmc10{fill:#FFCEBF;}
	.hmc11{fill:#F0D5A8;}
	.hmc12{fill:#DEBB7E;}
	.hmc13{fill:#F0D5A8;stroke:#191816;stroke-linecap:round;stroke-linejoin:round;}
	.hmc14{fill:#915E3A;stroke:#191816;stroke-linecap:round;stroke-linejoin:round;}
	.hmc15{fill:#2ED573;}
	.hmc16{fill:#3DE882;}
	.hmc17{fill:#915E3A;}
	.hmc18{fill:#BF8256;}
	.hmc19{fill:#1E90FF;}
	.hmc20{fill:#41ADF7;}
	.hmc21{fill:#FFCEBF;stroke:#191816;stroke-linecap:round;stroke-linejoin:round;}
	.hmc22{fill:#DEA47A;}
	.hmc23{fill:#FFB59E;}
	.hmc24{fill:#1E90FF;stroke:#191816;stroke-linecap:round;stroke-linejoin:round;}
	.hmc25{fill:#191816;}
	.hmc26{fill:#A86C4D;stroke:#191816;stroke-linecap:round;stroke-linejoin:round;}
	.hmc27{fill:#C0DCEB;stroke:#191816;stroke-linecap:round;stroke-linejoin:round;}
	.hmc28{fill:#DEBB7E;stroke:#191816;stroke-linecap:round;stroke-linejoin:round;}
</style>
<title>58- hiking-male-caucasian</title>
<g id="Background">
	<g id="New_Symbol_29-23">
		<path class="hmc0" d="M89.8,56c0-22.1-17.9-40-40-40s-40,17.9-40,40c0,5.7,1.2,11.3,3.6,16.5h72.9C88.6,67.3,89.8,61.7,89.8,56z"/>
		<path class="hmc1" d="M13.4,72.5c9.1,20.1,32.8,29,52.9,19.9c8.8-4,15.9-11.1,19.9-19.9H13.4z"/>
		<line class="hmc2" x1="10.8" y1="72.5" x2="88.8" y2="72.5"/>
		<line class="hmc2" x1="6.3" y1="72.5" x2="8.8" y2="72.5"/>
		<line class="hmc2" x1="90.8" y1="72.5" x2="93.3" y2="72.5"/>
	</g>
</g>
<g id="Scene">
	<polygon class="hmc3" points="85.3,72.5 61.3,72.5 61.3,56.5 77.3,56.5 	"/>
	<polygon class="hmc4" points="78.8,59.5 77.3,56.5 61.3,56.5 61.3,59.5 	"/>
	<polygon class="hmc2" points="85.3,72.5 61.3,72.5 61.3,56.5 77.3,56.5 	"/>
	<polygon class="hmc5" points="53.3,72.5 61.3,56.5 69.3,72.5 	"/>
	<line class="hmc2" x1="61.3" y1="55" x2="61.3" y2="72.5"/>
	<line class="hmc2" x1="77.3" y1="56.5" x2="77.3" y2="55"/>
	<path class="hmc6" d="M22.3,72.5l-5.1-2.1c-0.5-0.2-1.1,0-1.3,0.5l0,0l-0.6,1.6H22.3z"/>
	<path class="hmc6" d="M22.3,72.5l5.1-2.1c0.5-0.2,1.1,0,1.3,0.5l0,0l0.6,1.6H22.3z"/>
	<path class="hmc7" d="M22,63.1c0.5,1.2,1,4.7-1.5,5.8c-0.9-0.3-1.5-0.9-1.9-1.7c-0.3,0.9-0.3,1.8,0,2.7c0.8,2.1,3,3.1,5.1,2.4
		c1.6-0.6,2.6-2.1,2.6-3.7C26.3,65,23,63.3,22,63.1z"/>
	<line class="hmc2" x1="85.3" y1="72.5" x2="86.3" y2="69.5"/>
	<circle class="hmc8" cx="22.3" cy="50" r="1.5"/>
	<path class="hmc8" d="M16.7,53.8c1.2-0.4,2.5,0.2,2.9,1.5c0.3,0.7,0.1,1.6-0.4,2.2l0,0c0.7,0.4,0.9,1.2,0.6,1.9
		c-0.4,0.7-1.2,0.9-1.9,0.6c-0.6-0.3-0.9-1-0.7-1.6c-1.3-0.1-2.3-1.1-2.2-2.4C15.1,54.9,15.7,54.1,16.7,53.8L16.7,53.8z"/>
	<line class="hmc2" x1="53.3" y1="72.5" x2="52.3" y2="69.5"/>
	<line class="hmc2" x1="69.3" y1="72.5" x2="70.3" y2="69.5"/>
	<ellipse class="hmc9" cx="39.3" cy="90" rx="15" ry="1.7"/>
	<path class="hmc10" d="M31.9,67.9v21.3H37l0.5-14.3c0.1-1,1-1.8,2-1.7c0.9,0.1,1.6,0.8,1.7,1.7l0.5,14.3h5.2V67.9H31.9z"/>
	<path class="hmc11" d="M37,89.2l0.5-14.3c0.1-1,1-1.8,2-1.7c0.9,0.1,1.6,0.8,1.7,1.7l0.2,4.5h5.5V67.9h-15v21.3H37z"/>
	<line class="hmc2" x1="41.3" y1="79.4" x2="46.8" y2="79.4"/>
	<rect x="31.9" y="67.9" class="hmc12" width="15" height="2.9"/>
	<path class="hmc2" d="M31.9,67.9v21.3H37l0.5-14.3c0.1-1,1-1.8,2-1.7c0.9,0.1,1.6,0.8,1.7,1.7l0.5,14.3h5.2V67.9H31.9z"/>
	<path class="hmc13" d="M41.3,79.4h5.5c0.3,0,0.5,0.2,0.5,0.5v1.9c0,0.3-0.2,0.5-0.5,0.5h-5.5c-0.3,0-0.5-0.2-0.5-0.5v-1.9
		C40.8,79.6,41.1,79.4,41.3,79.4z"/>
	<path class="hmc14" d="M47.1,89.7c0.6,0,1.1-0.5,1.1-1.2c0-0.2,0-0.3-0.1-0.5c-0.6-1.1-1.8-1.8-3-1.8h-0.6c-1.2,0-2.4,0.7-3,1.8
		c-0.3,0.6-0.1,1.3,0.5,1.5c0.2,0.1,0.3,0.1,0.5,0.1L47.1,89.7L47.1,89.7z"/>
	<path class="hmc14" d="M36.2,89.7c0.6,0,1.1-0.5,1.1-1.1c0-0.2,0-0.4-0.1-0.5c-0.6-1.1-1.8-1.8-3-1.8h-0.6c-1.2,0-2.4,0.7-3,1.8
		c-0.3,0.6-0.1,1.2,0.5,1.5c0.2,0.1,0.3,0.1,0.5,0.1H36.2z"/>
	<path class="hmc15" d="M32.4,48.3l-5.6,0.9c-0.6,0.1-1.2-0.3-1.3-0.9c0-0.1,0-0.1,0-0.2V44c0-0.6,0.5-1.2,1.1-1.2c0.1,0,0.1,0,0.2,0
		l5.6,0.9V48.3z"/>
	<path class="hmc16" d="M26.9,42.8c-0.6-0.1-1.2,0.3-1.3,0.9c0,0.1,0,0.2,0,0.2v2.5c0-0.6,0.5-1.1,1.2-1.1c0.1,0,0.1,0,0.2,0l5.6,0.9
		v-2.5L26.9,42.8z"/>
	<path class="hmc2" d="M32.4,48.3l-5.6,0.9c-0.6,0.1-1.2-0.3-1.3-0.9c0-0.1,0-0.1,0-0.2V44c0-0.6,0.5-1.2,1.1-1.2c0.1,0,0.1,0,0.2,0
		l5.6,0.9V48.3z"/>
	<path class="hmc15" d="M46.2,48.3l5.6,0.9c0.6,0.1,1.2-0.3,1.3-0.9c0-0.1,0-0.1,0-0.2V44c0-0.6-0.5-1.2-1.1-1.2c-0.1,0-0.1,0-0.2,0
		l-5.6,0.9V48.3z"/>
	<path class="hmc16" d="M51.8,42.8l-5.6,0.9v2.5l5.6-0.9c0.6-0.1,1.2,0.3,1.3,0.9c0,0.1,0,0.1,0,0.2V44c0-0.6-0.5-1.2-1.1-1.2
		C52,42.8,51.9,42.8,51.8,42.8z"/>
	<path class="hmc2" d="M46.2,48.3l5.6,0.9c0.6,0.1,1.2-0.3,1.3-0.9c0-0.1,0-0.1,0-0.2V44c0-0.6-0.5-1.2-1.1-1.2c-0.1,0-0.1,0-0.2,0
		l-5.6,0.9V48.3z"/>
	<path class="hmc17" d="M47.4,65H31.3c-0.6,0-1.1-0.5-1.1-1.1l0,0V46c0-1.9,1.5-3.4,3.4-3.5l0,0h11.5c1.9,0,3.5,1.5,3.5,3.5l0,0v17.9
		C48.5,64.5,48,65,47.4,65z"/>
	<path class="hmc18" d="M45.1,42.6H33.6c-1.9,0-3.4,1.5-3.5,3.4v2.9c0-1.9,1.5-3.5,3.5-3.5l0,0h11.5c1.9,0,3.4,1.5,3.5,3.5V46
		C48.5,44.1,47,42.6,45.1,42.6z"/>
	<path class="hmc2" d="M47.4,65H31.3c-0.6,0-1.1-0.5-1.1-1.1l0,0V46c0-1.9,1.5-3.4,3.4-3.5l0,0h11.5c1.9,0,3.5,1.5,3.5,3.5l0,0v17.9
		C48.5,64.5,48,65,47.4,65z"/>
	<path class="hmc19" d="M50.8,58.1v1.2h-4v8.6h-15v-8.6h-4v-1.1c0-6.4,5.1-11.5,11.5-11.5S50.8,51.8,50.8,58.1z"/>
	<path class="hmc20" d="M39.3,46.6c-6.3,0-11.5,5.2-11.5,11.5v1.2H28c1.3-6.2,7.3-10.2,13.6-9c4.5,0.9,8.1,4.5,9,9h0.2v-1.2
		C50.8,51.8,45.7,46.6,39.3,46.6z"/>
	<path class="hmc2" d="M50.8,58.1v1.2h-4v8.6h-15v-8.6h-4v-1.1c0-5,3.2-9.5,8-11l0.2-0.1c1.1-0.3,2.2-0.5,3.3-0.5c1,0,2,0.1,3,0.4
		l0.4,0.1C47.6,48.6,50.8,53.1,50.8,58.1L50.8,58.1z"/>
	<path class="hmc21" d="M42.4,47l-3,3.6L36.1,47c1.1-0.3,2.2-0.5,3.3-0.5C40.4,46.6,41.4,46.7,42.4,47z"/>
	<path class="hmc18" d="M35.9,47.1v15.6c0,2.2-1.8,4-4,4V49.4C33.1,48.4,34.4,47.6,35.9,47.1z"/>
	<path class="hmc22" d="M35.9,47.1v4c-1.5,0.5-2.8,1.2-4,2.2v-4C33.1,48.4,34.4,47.6,35.9,47.1z"/>
	<path class="hmc2" d="M35.9,47.1v15.6c0,2.2-1.8,4-4,4V49.4C33.1,48.4,34.4,47.6,35.9,47.1z"/>
	<path class="hmc18" d="M46.8,49.4v17.4c-2.2,0-4-1.8-4-4V47.1C44.3,47.6,45.6,48.4,46.8,49.4z"/>
	<path class="hmc18" d="M42.8,47.1v15.6c0,2.2,1.8,4,4,4V49.4C45.6,48.4,44.3,47.6,42.8,47.1z"/>
	<path class="hmc22" d="M42.8,47.1v4c1.5,0.5,2.8,1.2,4,2.2v-4C45.6,48.4,44.3,47.6,42.8,47.1z"/>
	<path class="hmc2" d="M42.8,47.1v15.6c0,2.2,1.8,4,4,4V49.4C45.6,48.4,44.3,47.6,42.8,47.1z"/>
	<path class="hmc2" d="M35.9,53.5c1.1,0.3,2.3,0.5,3.5,0.6c1.2-0.1,2.3-0.3,3.5-0.6"/>
	<path class="hmc2" d="M35.9,57.5c1,0.7,2.2,1.1,3.5,1.2c1.2-0.1,2.4-0.5,3.5-1.2"/>
	<path class="hmc21" d="M31.9,60.4c0,0.6,0.5,1.1,1.1,1.2h3.7c1.1,0,2,0.9,2,2c0,1.1-0.9,2-2,2H33c-2.9,0-5.2-2.3-5.2-5.2l0,0v-1.1h4
		L31.9,60.4z"/>
	<path class="hmc10" d="M46.8,71.1c0,1.1,0.9,2,2,2s2-0.9,2-2v-9.5h-4V71.1z"/>
	<rect x="46.8" y="61.6" class="hmc23" width="4" height="2.9"/>
	<path class="hmc2" d="M46.8,71.1c0,1.1,0.9,2,2,2s2-0.9,2-2v-9.5h-4V71.1z"/>
	<path class="hmc24" d="M46.8,59.3h4.1c0.3,0,0.5,0.2,0.5,0.5v1.3c0,0.3-0.2,0.5-0.5,0.5h-4.1l0,0V59.3L46.8,59.3z"/>
	<path class="hmc24" d="M27.8,58.1h4.1l0,0v2.3l0,0h-4.1c-0.3,0-0.5-0.2-0.5-0.5v-1.3C27.3,58.3,27.5,58.1,27.8,58.1z"/>
	<path class="hmc21" d="M47.4,37.4c0-0.7-0.5-1.3-1.1-1.4v-0.9c0-3.8-3.1-6.9-6.9-6.9c-3.8,0-6.9,3.1-6.9,6.9V36
		c-0.8,0.1-1.3,0.9-1.1,1.6c0.1,0.6,0.6,1.1,1.3,1.1c0.8,3.7,4.4,6.1,8.2,5.3c2.7-0.6,4.8-2.7,5.3-5.3
		C46.8,38.7,47.4,38.1,47.4,37.4z"/>
	<circle class="hmc23" cx="35.6" cy="38.3" r="0.9"/>
	<circle class="hmc23" cx="43.1" cy="38.3" r="0.9"/>
	<path class="hmc2" d="M41.1,40.3c-1,0.8-2.4,0.8-3.5,0"/>
	<path class="hmc25" d="M36.8,35.1c-0.5,0-0.9,0.4-0.9,0.9s0.4,0.9,0.9,0.9s0.9-0.4,0.9-0.9l0,0C37.6,35.5,37.2,35.1,36.8,35.1
		L36.8,35.1z"/>
	<path class="hmc25" d="M41.9,35.1c-0.5,0-0.9,0.4-0.9,0.9s0.4,0.9,0.9,0.9s0.9-0.4,0.9-0.9l0,0C42.8,35.5,42.4,35.1,41.9,35.1z"/>
	<path class="hmc26" d="M39.3,28.2c-3.8,0-6.9,3.1-6.9,6.9l0,0v0.6c1,0,1.9-0.9,1.9-1.9c0.1-0.7,0.8-1.3,1.6-1.1l0,0
		c2.2,0.5,4.6,0.5,6.8,0c0.7-0.1,1.5,0.4,1.6,1.1l0,0c0,1,0.9,1.9,1.9,1.9v-0.6C46.2,31.3,43.2,28.2,39.3,28.2z"/>
	<path class="hmc27" d="M35.2,58.7h5.3c0.3,0,0.5,0.2,0.5,0.5v1.9c0,0.3-0.2,0.5-0.5,0.5h-5.8l0,0v-2.4C34.7,58.9,35,58.7,35.2,58.7z
		"/>
	<path class="hmc28" d="M48.5,32.7c0,0.4-0.2,0.8-0.7,1c-2.7,1-5.6,1.5-8.5,1.4c-2.9,0.1-5.8-0.4-8.5-1.4c-0.4-0.2-0.7-0.6-0.6-1l0,0
		c0-0.6,0.5-1.1,1.1-1.1c0.1,0,0.2,0,0.3,0.1c2.5,0.8,5.2,1.2,7.8,1.1c2.6,0.1,5.3-0.3,7.8-1.1c0.6-0.2,1.2,0.1,1.4,0.7
		C48.5,32.5,48.5,32.6,48.5,32.7z"/>
	<path class="hmc12" d="M39.3,26.5c-1,0-2.1-0.2-3-0.5c-1.2-0.3-2.4,0.4-2.8,1.6l-1.3,4.3c2.3,0.6,4.7,1,7.2,0.9
		c2.4,0,4.8-0.3,7.1-0.9l-1.3-4.3c-0.4-1.2-1.6-1.9-2.8-1.6C41.4,26.3,40.4,26.5,39.3,26.5z"/>
	<path class="hmc11" d="M35.8,28.3c1.2,0.3,2.4,0.5,3.6,0.5c1.2,0,2.4-0.2,3.6-0.5c1-0.3,2,0.1,2.7,0.8l-0.5-1.5
		c-0.4-1.2-1.6-1.9-2.8-1.6c-1,0.3-2,0.4-3,0.5c-1,0-2.1-0.2-3.1-0.5c-1.2-0.3-2.4,0.4-2.8,1.6L33,29.1C33.7,28.3,34.8,28,35.8,28.3
		z"/>
	<path class="hmc2" d="M39.3,26.5c-1,0-2.1-0.2-3-0.5c-1.2-0.3-2.4,0.4-2.8,1.6l-1.3,4.3c2.3,0.6,4.7,1,7.2,0.9
		c2.4,0,4.8-0.3,7.1-0.9l-1.3-4.3c-0.4-1.2-1.6-1.9-2.8-1.6C41.4,26.3,40.4,26.5,39.3,26.5z"/>
</g>
</svg>
