<?xml version="1.0" encoding="utf-8"?>
<!-- Generator: Adobe Illustrator 22.1.0, SVG Export Plug-In . SVG Version: 6.00 Build 0)  -->
<svg version="1.1" id="Multicolor" xmlns="http://www.w3.org/2000/svg" xmlns:xlink="http://www.w3.org/1999/xlink" x="0px" y="0px"
	 viewBox="0 0 100 112" style="enable-background:new 0 0 100 112;" xml:space="preserve">
<style type="text/css">
	.ml0{fill:none;stroke:#4F4A45;stroke-linecap:round;stroke-linejoin:round;}
	.ml1{fill:#E8F4FA;}
	.ml2{fill:#FFFFFF;}
	.ml3{fill:#2ED573;}
	.ml4{fill:#FFA502;}
	.ml5{fill:#1E90FF;}
	.ml6{fill:#FFFFFF;stroke:#C0DCEB;stroke-linecap:round;stroke-linejoin:round;}
	.ml7{fill:none;stroke:#191816;stroke-linecap:round;stroke-linejoin:round;}
	.ml8{opacity:0.15;fill:#191816;enable-background:new    ;}
	.ml9{fill:#FC6376;}
	.ml10{fill:#F98592;}
	.ml11{fill:#BA3846;stroke:#191816;stroke-linecap:round;stroke-linejoin:round;}
	.ml12{fill:#FC6376;stroke:#191816;stroke-linecap:round;stroke-linejoin:round;}
</style>
<title>04- map-location-1</title>
<g id="Background">
	<g id="New_Symbol_81">
		<line class="ml0" x1="4.3" y1="60.5" x2="6.8" y2="60.5"/>
		<line class="ml0" x1="95.3" y1="60.5" x2="92.8" y2="60.5"/>
		<circle class="ml1" cx="49.8" cy="56" r="40"/>
		<path class="ml2" d="M10.1,60.5c2.5,22,22.3,37.8,44.2,35.3c18.6-2.1,33.2-16.7,35.3-35.3C89.6,60.5,10.1,60.5,10.1,60.5z"/>
		<path class="ml2" d="M89,64c0.2-1.2,0.4-2.3,0.6-3.5H10.1c0.1,1.2,0.3,2.3,0.6,3.5H89z"/>
		<line class="ml0" x1="8.8" y1="60.5" x2="89.8" y2="60.5"/>
	</g>
</g>
<g id="Scene">
	<polygon class="ml3" points="91.3,84.5 68.8,64.5 30.8,64.5 8.3,84.5 	"/>
	<polygon class="ml4" points="31,68.5 34.6,64.5 30.8,64.5 26.3,68.5 26.3,68.5 	"/>
	<polygon class="ml5" points="31,72.5 27.8,76.5 63,76.5 61.1,72.5 	"/>
	<polygon class="ml4" points="77.8,72.5 68.7,72.5 77.8,84.5 91.3,84.5 	"/>
	<path class="ml6" d="M68.7,72.5h9.2l-4.5-4h-22l-0.3-4h-2.5l-0.3,4H34.1l3.1-4h-2.6l-3.6,4h-4.7l-4.5,4h5.4l-11,12h5.4l3.9-5h38.8
		l2.3,5h11.2L68.7,72.5z M27.8,76.5l3.1-4h30.2l1.8,4H27.8z"/>
	<polygon class="ml7" points="91.3,84.5 68.8,64.5 30.8,64.5 8.3,84.5 	"/>
	<ellipse class="ml8" cx="44.3" cy="69.5" rx="5" ry="1"/>
	<path class="ml9" d="M56.8,43c0,6.9-12.5,25.5-12.5,25.5S31.8,49.9,31.8,43s5.6-12.5,12.5-12.5S56.8,36.1,56.8,43z"/>
	<path class="ml10" d="M44.3,34.5c6,0,11.2,4.3,12.3,10.2c0.1-0.6,0.2-1.2,0.2-1.8c0-6.9-5.6-12.5-12.5-12.5S31.8,36.1,31.8,43
		c0,0.6,0.1,1.2,0.2,1.8C33.1,38.8,38.3,34.5,44.3,34.5z"/>
	<circle class="ml11" cx="44.3" cy="43" r="6"/>
	<path class="ml7" d="M56.8,43c0,6.9-12.5,25.5-12.5,25.5S31.8,49.9,31.8,43s5.6-12.5,12.5-12.5S56.8,36.1,56.8,43z"/>
	<ellipse class="ml8" cx="63.8" cy="68" rx="3.5" ry="0.5"/>
	<ellipse class="ml8" cx="76.8" cy="76" rx="3.5" ry="0.5"/>
	<ellipse class="ml8" cx="23.8" cy="74" rx="3.5" ry="0.5"/>
	<path class="ml12" d="M26.3,69c0,1.4-2.5,4.5-2.5,4.5s-2.5-3.1-2.5-4.5s1.1-2.5,2.5-2.5S26.3,67.6,26.3,69z"/>
	<path class="ml12" d="M66.3,63c0,1.4-2.5,4.5-2.5,4.5s-2.5-3.1-2.5-4.5s1.1-2.5,2.5-2.5C65.2,60.5,66.3,61.6,66.3,63z"/>
	<path class="ml12" d="M82.3,65c0,3-5.5,10.5-5.5,10.5S71.3,68,71.3,65s2.5-5.5,5.5-5.5S82.3,62,82.3,65z"/>
	<circle class="ml11" cx="76.8" cy="65" r="2.5"/>
</g>
</svg>
