<?xml version="1.0" encoding="utf-8"?>
<!-- Generator: Adobe Illustrator 22.1.0, SVG Export Plug-In . SVG Version: 6.00 Build 0)  -->
<svg version="1.1" id="Regular" xmlns="http://www.w3.org/2000/svg" xmlns:xlink="http://www.w3.org/1999/xlink" x="0px" y="0px"
	 viewBox="0 0 24 24" style="enable-background:new 0 0 24 24;" xml:space="preserve">
<title>camping-tent-map</title>
<g>
	<path d="M9.75,24C9.337,24,9,23.664,9,23.25V16.5H2.25C1.01,16.5,0,15.491,0,14.25v-9C0,4.009,1.01,3,2.25,3L9,2.999V0.75
		C9,0.336,9.337,0,9.75,0s0.75,0.336,0.75,0.75v2.248l6.867-0.001c0.604,0,1.191,0.248,1.612,0.68l4.37,4.489
		c0.872,0.873,0.87,2.299-0.007,3.176l-4.362,4.479c-0.421,0.432-1.008,0.679-1.611,0.679H10.5v6.75C10.5,23.664,10.164,24,9.75,24z
		 M2.25,4.5C1.837,4.5,1.5,4.836,1.5,5.25v9C1.5,14.664,1.837,15,2.25,15h15.117c0.202,0,0.398-0.083,0.538-0.226l4.369-4.486
		c0.298-0.298,0.3-0.776,0.007-1.068l-4.377-4.497c-0.14-0.144-0.336-0.226-0.537-0.226L9.783,4.499C9.771,4.499,9.76,4.5,9.75,4.5
		c-0.01,0-0.022-0.001-0.034-0.002L2.25,4.5z"/>
	<path d="M6,13.5c-0.294,0-0.562-0.173-0.683-0.44c-0.121-0.267-0.075-0.583,0.119-0.804l3.318-3.792l-1.068-1.22
		C7.554,7.093,7.489,6.9,7.502,6.7c0.013-0.2,0.104-0.383,0.254-0.515C7.893,6.066,8.068,6,8.25,6c0.216,0,0.422,0.093,0.565,0.256
		L9.75,7.325l0.936-1.069C10.828,6.093,11.034,6,11.25,6c0.182,0,0.357,0.066,0.494,0.185C11.895,6.317,11.985,6.5,11.999,6.7
		c0.013,0.2-0.052,0.393-0.184,0.544l-1.068,1.22l3.318,3.792c0.193,0.22,0.24,0.536,0.119,0.803S13.794,13.5,13.5,13.5H6z
		 M11.847,12L9.75,9.603L7.653,12H11.847z"/>
</g>
</svg>
