<?xml version="1.0" encoding="utf-8"?>
<!-- Generator: Adobe Illustrator 22.1.0, SVG Export Plug-In . SVG Version: 6.00 Build 0)  -->
<svg version="1.1" id="Regular" xmlns="http://www.w3.org/2000/svg" xmlns:xlink="http://www.w3.org/1999/xlink" x="0px" y="0px"
	 viewBox="0 0 24 24" style="enable-background:new 0 0 24 24;" xml:space="preserve">
<title>chair-1</title>
<g>
	<path d="M18.75,24C18.336,24,18,23.664,18,23.25V18H6v5.25C6,23.664,5.664,24,5.25,24S4.5,23.664,4.5,23.25V18
		C3.673,18,3,17.327,3,16.5V15c0-0.827,0.673-1.5,1.5-1.5H6V8.871C5.115,8.558,4.5,7.71,4.5,6.75v-3c0-0.96,0.615-1.808,1.5-2.121
		V0.75C6,0.336,6.336,0,6.75,0S7.5,0.336,7.5,0.75V1.5h9V0.75C16.5,0.336,16.836,0,17.25,0S18,0.336,18,0.75v0.879
		c0.885,0.314,1.5,1.162,1.5,2.121v3c0,0.96-0.615,1.808-1.5,2.121V13.5h1.5c0.827,0,1.5,0.673,1.5,1.5v1.5
		c0,0.827-0.673,1.5-1.5,1.5v5.25C19.5,23.664,19.164,24,18.75,24z M4.5,16.5h15V15h-15V16.5z M16.5,13.5V9h-9v4.5H16.5z M6.75,3
		C6.336,3,6,3.336,6,3.75v3C6,7.164,6.336,7.5,6.75,7.5h10.5C17.664,7.5,18,7.164,18,6.75v-3C18,3.336,17.664,3,17.25,3H6.75z"/>
</g>
</svg>
