<?xml version="1.0" encoding="utf-8"?>
<!-- Generator: Adobe Illustrator 22.1.0, SVG Export Plug-In . SVG Version: 6.00 Build 0)  -->
<svg version="1.1" id="Layer_1" xmlns="http://www.w3.org/2000/svg" xmlns:xlink="http://www.w3.org/1999/xlink" x="0px" y="0px"
	 viewBox="0 0 24 24" style="enable-background:new 0 0 24 24;" xml:space="preserve">
<title>compass-1</title>
<g>
	<path d="M7.882,17.617c-0.162,0-0.322-0.026-0.475-0.077c-0.785-0.262-1.21-1.114-0.948-1.898l2.177-6.531
		c0.074-0.223,0.251-0.4,0.475-0.474l6.531-2.177c0.154-0.052,0.315-0.078,0.478-0.078c0.398,0,0.774,0.156,1.058,0.441
		c0.405,0.404,0.543,0.993,0.362,1.536l-2.177,6.532c-0.074,0.223-0.251,0.4-0.474,0.474l-6.533,2.177
		C8.204,17.592,8.045,17.617,7.882,17.617z M7.882,16.117l6.177-2.058l2.059-6.177L9.941,9.941L7.882,16.117z"/>
	<path d="M12,24c-3.174,0-6.166-1.231-8.43-3.468c-0.018-0.012-0.038-0.028-0.058-0.049C3.5,20.47,3.485,20.452,3.471,20.433
		C1.233,18.169,0,15.176,0,12c0-3.174,1.232-6.167,3.469-8.43c0.012-0.017,0.027-0.036,0.046-0.055
		c0.014-0.014,0.033-0.029,0.052-0.043C5.831,1.232,8.824,0,12,0c3.174,0,6.167,1.231,8.43,3.468
		c0.017,0.012,0.035,0.026,0.053,0.044c0.015,0.014,0.031,0.034,0.046,0.055C22.768,5.831,24,8.824,24,12
		c0,3.174-1.231,6.167-3.468,8.43c-0.012,0.017-0.027,0.036-0.047,0.055c-0.014,0.014-0.033,0.03-0.052,0.043
		C18.169,22.768,15.176,24,12,24z M12,20.25c0.414,0,0.75,0.336,0.75,0.75v1.47c2.258-0.161,4.405-1.052,6.12-2.54l-1.036-1.036
		c-0.142-0.142-0.22-0.33-0.22-0.53s0.078-0.389,0.22-0.53s0.33-0.22,0.53-0.22s0.389,0.078,0.53,0.22l1.036,1.036
		c1.488-1.715,2.378-3.863,2.54-6.12H21c-0.414,0-0.75-0.336-0.75-0.75s0.336-0.75,0.75-0.75h1.47
		c-0.161-2.258-1.052-4.405-2.54-6.12l-1.036,1.036c-0.142,0.142-0.33,0.22-0.53,0.22s-0.389-0.078-0.53-0.22
		c-0.142-0.142-0.22-0.33-0.22-0.53c0-0.2,0.078-0.389,0.22-0.53l1.036-1.036c-1.715-1.487-3.862-2.378-6.12-2.54V3
		c0,0.414-0.336,0.75-0.75,0.75S11.25,3.414,11.25,3V1.53c-2.258,0.161-4.405,1.052-6.12,2.54l1.036,1.036
		c0.142,0.141,0.22,0.33,0.22,0.53s-0.078,0.389-0.22,0.53c-0.141,0.142-0.33,0.22-0.53,0.22s-0.389-0.078-0.53-0.22L4.069,5.13
		c-1.487,1.715-2.378,3.862-2.54,6.12H3c0.414,0,0.75,0.336,0.75,0.75S3.414,12.75,3,12.75H1.53c0.161,2.258,1.052,4.405,2.54,6.12
		l1.036-1.036c0.142-0.142,0.33-0.22,0.53-0.22s0.389,0.078,0.53,0.22c0.142,0.142,0.22,0.33,0.22,0.53s-0.078,0.389-0.22,0.53
		L5.13,19.931c1.715,1.488,3.862,2.378,6.12,2.54V21C11.25,20.586,11.586,20.25,12,20.25z"/>
	<path d="M12,13.125c-0.044,0-0.088-0.004-0.13-0.011c-0.513-0.06-0.922-0.47-0.983-0.982c-0.008-0.043-0.012-0.087-0.012-0.131
		s0.004-0.088,0.012-0.131c0.06-0.513,0.47-0.922,0.982-0.982c0.043-0.008,0.087-0.012,0.131-0.012s0.088,0.004,0.131,0.012
		c0.513,0.06,0.922,0.47,0.983,0.983c0.007,0.042,0.011,0.086,0.011,0.13s-0.004,0.088-0.011,0.13
		c-0.061,0.513-0.47,0.923-0.983,0.983C12.088,13.121,12.044,13.125,12,13.125z"/>
</g>
</svg>
