<?xml version="1.0" encoding="utf-8"?>
<!-- Generator: Adobe Illustrator 22.1.0, SVG Export Plug-In . SVG Version: 6.00 Build 0)  -->
<svg version="1.1" id="Layer_1" xmlns="http://www.w3.org/2000/svg" xmlns:xlink="http://www.w3.org/1999/xlink" x="0px" y="0px"
	 viewBox="0 0 24 24" style="enable-background:new 0 0 24 24;" xml:space="preserve">
<title>information-desk-question-help</title>
<g>
	<path d="M17.25,15.75c-1.241,0-2.25-1.009-2.25-2.25v-2.25C15,10.009,16.009,9,17.25,9S19.5,7.99,19.5,6.75S18.491,4.5,17.25,4.5
		S15,5.509,15,6.75S13.991,9,12.75,9C11.509,9,10.5,7.99,10.5,6.75c0-1.803,0.702-3.498,1.977-4.773C13.752,0.702,15.447,0,17.25,0
		c3.722,0,6.75,3.029,6.75,6.751c0,2.89-1.797,5.413-4.5,6.364V13.5C19.5,14.74,18.491,15.75,17.25,15.75z M17.25,3
		C19.318,3,21,4.682,21,6.75s-1.682,3.75-3.75,3.75c-0.414,0-0.75,0.336-0.75,0.75v2.25c0,0.414,0.336,0.75,0.75,0.75
		S18,13.913,18,13.5v-0.94c0-0.342,0.231-0.641,0.562-0.726c2.318-0.598,3.937-2.688,3.938-5.083c0-2.895-2.355-5.25-5.25-5.251
		C14.355,1.5,12,3.855,12,6.75c0,0.414,0.336,0.75,0.75,0.75s0.75-0.336,0.75-0.75C13.5,4.682,15.182,3,17.25,3z"/>
	<path d="M17.25,22.5c-1.654,0-3-1.346-3-3s1.346-3,3-3s3,1.346,3,3S18.904,22.5,17.25,22.5z M17.25,18c-0.827,0-1.5,0.673-1.5,1.5
		s0.673,1.5,1.5,1.5s1.5-0.673,1.5-1.5S18.077,18,17.25,18z"/>
	<path d="M6.75,24c-1.803,0-3.498-0.702-4.773-1.977C0.702,20.749,0,19.054,0,17.251c0-2.89,1.797-5.414,4.5-6.365V10.5
		c0-1.241,1.009-2.25,2.25-2.25S9,9.259,9,10.5v2.25C9,13.99,7.991,15,6.75,15S4.5,16.009,4.5,17.25s1.009,2.25,2.25,2.25
		S9,18.49,9,17.25S10.009,15,11.25,15c1.241,0,2.25,1.009,2.25,2.25c0,1.803-0.702,3.498-1.977,4.773
		C10.249,23.298,8.554,24,6.75,24L6.75,24z M6.75,9.75C6.336,9.75,6,10.086,6,10.5v0.941c0,0.342-0.231,0.641-0.562,0.726
		C3.119,12.766,1.5,14.856,1.5,17.251c0,2.895,2.355,5.25,5.25,5.25c1.4,0,2.718-0.547,3.711-1.54S12,18.65,12,17.25
		c0-0.414-0.336-0.75-0.75-0.75s-0.75,0.336-0.75,0.75c0,2.068-1.682,3.75-3.75,3.75S3,19.318,3,17.25s1.682-3.75,3.75-3.75
		c0.414,0,0.75-0.336,0.75-0.75V10.5C7.5,10.086,7.164,9.75,6.75,9.75z"/>
	<path d="M6.75,7.5c-1.654,0-3-1.346-3-3s1.346-3,3-3s3,1.346,3,3S8.404,7.5,6.75,7.5z M6.75,3c-0.827,0-1.5,0.673-1.5,1.5
		S5.923,6,6.75,6s1.5-0.673,1.5-1.5S7.577,3,6.75,3z"/>
</g>
</svg>
