<?xml version="1.0" encoding="utf-8"?>
<!-- Generator: Adobe Illustrator 22.1.0, SVG Export Plug-In . SVG Version: 6.00 Build 0)  -->
<svg version="1.1" id="Layer_1" xmlns="http://www.w3.org/2000/svg" xmlns:xlink="http://www.w3.org/1999/xlink" x="0px" y="0px"
	 viewBox="0 0 24 24" style="enable-background:new 0 0 24 24;" xml:space="preserve">
<title>landmark-volcano</title>
<g>
	<path d="M23.25,23.25c-0.08,0-0.159-0.013-0.236-0.038c-2.891-0.956-5.371-2.892-7.023-5.471l-0.909,0.606
		c-0.247,0.165-0.535,0.252-0.832,0.252s-0.585-0.087-0.832-0.252L12,17.401l-1.417,0.946C10.334,18.512,10.047,18.6,9.75,18.6
		c-0.297,0-0.584-0.087-0.832-0.253l-0.91-0.606c-1.652,2.579-4.132,4.515-7.023,5.471C0.91,23.237,0.83,23.25,0.75,23.25
		c-0.324,0-0.61-0.207-0.712-0.515c-0.063-0.19-0.048-0.393,0.042-0.572s0.244-0.312,0.435-0.375
		c3.522-1.165,6.322-3.963,7.49-7.483c0.298-0.928,1.159-1.555,2.14-1.555h3.71c0.981,0,1.842,0.627,2.142,1.562
		c1.167,3.515,3.967,6.311,7.489,7.477c0.19,0.063,0.344,0.196,0.435,0.375c0.09,0.179,0.105,0.382,0.042,0.573
		C23.861,23.043,23.575,23.25,23.25,23.25z M12,15.9c0.297,0,0.584,0.087,0.832,0.253l1.418,0.946l1.002-0.668
		c-0.27-0.547-0.498-1.102-0.681-1.654c-0.102-0.317-0.389-0.527-0.716-0.527h-3.71c-0.327,0-0.614,0.209-0.714,0.521
		c-0.184,0.555-0.414,1.112-0.684,1.66l1.003,0.668l1.418-0.946C11.416,15.988,11.703,15.9,12,15.9z"/>
	<path d="M5.25,8.25C3.182,8.25,1.5,6.568,1.5,4.5s1.682-3.75,3.75-3.75S9,2.432,9,4.5S7.318,8.25,5.25,8.25z M5.25,2.25
		C4.009,2.25,3,3.259,3,4.5s1.009,2.25,2.25,2.25S7.5,5.741,7.5,4.5S6.491,2.25,5.25,2.25z"/>
</g>
</svg>
