<?xml version="1.0" encoding="utf-8"?>
<!-- Generator: Adobe Illustrator 22.1.0, SVG Export Plug-In . SVG Version: 6.00 Build 0)  -->
<svg version="1.1" id="Layer_1" xmlns="http://www.w3.org/2000/svg" xmlns:xlink="http://www.w3.org/1999/xlink" x="0px" y="0px"
	 viewBox="0 0 24 24" style="enable-background:new 0 0 24 24;" xml:space="preserve">
<title>location-user</title>
<g>
	<path d="M12,24.005c-6.729,0-12-2.638-12-6.005c0-2.001,1.817-3.788,4.986-4.902c0.081-0.028,0.164-0.042,0.249-0.042
		c0.318,0,0.602,0.201,0.708,0.501c0.066,0.189,0.055,0.393-0.031,0.573c-0.087,0.181-0.239,0.317-0.428,0.383
		C3.026,15.377,1.5,16.713,1.5,18c0,2.4,4.906,4.505,10.5,4.505s10.5-2.103,10.5-4.5c0-1.293-1.537-2.633-4.011-3.497
		c-0.189-0.066-0.341-0.202-0.428-0.382c-0.087-0.181-0.099-0.384-0.032-0.573c0.105-0.301,0.39-0.503,0.708-0.503
		c0.084,0,0.168,0.014,0.248,0.042C22.171,14.206,24,15.996,24,18.005C24,21.37,18.729,24.005,12,24.005z"/>
	<path d="M12,6.75c-1.861,0-3.375-1.514-3.375-3.375S10.139,0,12,0c1.861,0,3.375,1.514,3.375,3.375S13.861,6.75,12,6.75z M12,1.5
		c-1.034,0-1.875,0.841-1.875,1.875S10.966,5.25,12,5.25s1.875-0.841,1.875-1.875S13.034,1.5,12,1.5z"/>
	<path d="M10.5,19.5c-0.377,0-0.697-0.282-0.744-0.657L9.088,13.5H8.25c-0.414,0-0.75-0.336-0.75-0.75V10.5C7.5,8.019,9.519,6,12,6
		c2.481,0,4.5,2.019,4.5,4.5v2.245c0,0.412-0.335,0.749-0.748,0.75l-0.84,0.003l-0.668,5.345C14.197,19.218,13.877,19.5,13.5,19.5
		H10.5z M12.838,18l0.668-5.343c0.047-0.373,0.365-0.655,0.741-0.657L15,11.998V10.5c0-1.654-1.346-3-3-3c-1.654,0-3,1.346-3,3V12
		h0.75c0.377,0,0.697,0.282,0.744,0.657L11.162,18H12.838z"/>
</g>
</svg>
