<?xml version="1.0" encoding="utf-8"?>
<!-- Generator: Adobe Illustrator 22.1.0, SVG Export Plug-In . SVG Version: 6.00 Build 0)  -->
<svg version="1.1" id="Layer_1" xmlns="http://www.w3.org/2000/svg" xmlns:xlink="http://www.w3.org/1999/xlink" x="0px" y="0px"
	 viewBox="0 0 24 24" style="enable-background:new 0 0 24 24;" xml:space="preserve">
<title>love-heart-hands-hold</title>
<g>
	<path d="M21.75,13.5c-1.241,0-2.25-1.009-2.25-2.25V9.429c-0.209,0.066-0.427,0.1-0.647,0.1c-0.753,0-1.461-0.4-1.847-1.044
		l-1.123-1.684C15.305,5.936,14.999,4.927,15,3.885V0.886c0-0.414,0.336-0.75,0.75-0.75s0.75,0.336,0.75,0.75v3
		c-0.001,0.745,0.218,1.465,0.631,2.083l1.142,1.715c0.134,0.222,0.347,0.345,0.581,0.345c0.116,0,0.229-0.032,0.33-0.092
		l0.034-0.022c0.258-0.172,0.355-0.519,0.222-0.808l-1.333-2.222c-0.103-0.172-0.133-0.373-0.084-0.568
		c0.049-0.194,0.17-0.358,0.342-0.461c0.116-0.07,0.25-0.107,0.385-0.107c0.262,0,0.509,0.14,0.644,0.364l1.35,2.25
		c0.008,0.013,0.018,0.03,0.026,0.048c0.16,0.319,0.239,0.675,0.227,1.032C20.999,7.463,21,7.481,21,7.5v3.75
		c0,0.414,0.336,0.75,0.75,0.75s0.75-0.336,0.75-0.75V6.079c0-0.849-0.292-1.681-0.822-2.344L19.677,1.37
		c-0.129-0.153-0.191-0.347-0.175-0.547c0.017-0.2,0.11-0.381,0.263-0.51c0.135-0.114,0.307-0.177,0.484-0.177
		c0.221,0,0.43,0.097,0.573,0.265l2.014,2.381C23.589,3.723,24,4.891,24,6.079v5.171C24,12.491,22.991,13.5,21.75,13.5z"/>
	<path d="M2.25,13.5C1.009,13.5,0,12.491,0,11.25V6.079c0-1.188,0.408-2.353,1.15-3.281l2.027-2.397
		C3.32,0.233,3.529,0.136,3.75,0.136c0.177,0,0.349,0.063,0.484,0.177c0.153,0.129,0.246,0.31,0.263,0.51
		c0.017,0.2-0.045,0.394-0.175,0.547L2.308,3.751C1.789,4.401,1.5,5.23,1.5,6.079v5.171C1.5,11.663,1.836,12,2.25,12
		S3,11.663,3,11.25V7.5c0-0.019,0.001-0.038,0.003-0.056C2.992,7.086,3.07,6.73,3.23,6.413C3.238,6.397,3.247,6.38,3.257,6.364
		l1.35-2.25C4.742,3.889,4.988,3.75,5.25,3.75c0.136,0,0.269,0.037,0.386,0.107C5.99,4.07,6.106,4.531,5.893,4.886L4.56,7.108
		C4.427,7.396,4.524,7.744,4.79,7.921l0.035,0.022C4.917,7.998,5.032,8.03,5.149,8.03c0.053,0,0.107-0.007,0.16-0.02
		c0.168-0.042,0.31-0.147,0.399-0.296L6.869,5.97C7.282,5.351,7.501,4.63,7.5,3.887V0.886c0-0.414,0.336-0.75,0.75-0.75
		S9,0.472,9,0.886v3c0.001,1.041-0.304,2.05-0.883,2.917L6.975,8.516c-0.279,0.467-0.745,0.81-1.303,0.95
		C5.5,9.509,5.323,9.531,5.147,9.531c-0.22,0-0.438-0.034-0.647-0.101v1.82C4.5,12.491,3.491,13.5,2.25,13.5z"/>
	<path d="M12,24c-0.203,0-0.4-0.084-0.541-0.231l-5.114-5.335c-1.142-1.142-1.424-2.891-0.696-4.346
		c0.451-0.902,1.227-1.575,2.184-1.893c0.389-0.13,0.791-0.195,1.196-0.195c0.587,0,1.155,0.135,1.686,0.401
		c0.363,0.181,0.693,0.419,0.981,0.707L12,13.411l0.305-0.305c0.712-0.712,1.66-1.104,2.67-1.104c1.01,0,1.958,0.392,2.67,1.104
		c0.288,0.288,0.526,0.618,0.707,0.981c0.728,1.455,0.443,3.207-0.708,4.357l-5.103,5.324C12.4,23.916,12.203,24,12,24z
		 M9.028,13.499c-0.244,0-0.487,0.04-0.722,0.118c-0.577,0.192-1.044,0.598-1.316,1.141c-0.438,0.877-0.267,1.933,0.427,2.626
		L12,22.166l4.573-4.77c0.703-0.702,0.876-1.76,0.438-2.637c-0.109-0.219-0.252-0.418-0.426-0.591c-0.429-0.429-1-0.665-1.609-0.665
		c-0.609,0-1.18,0.236-1.61,0.665l-0.835,0.835c-0.142,0.142-0.33,0.22-0.53,0.22s-0.389-0.078-0.53-0.22l-0.835-0.835
		c-0.174-0.173-0.372-0.317-0.591-0.426C9.723,13.581,9.381,13.499,9.028,13.499z"/>
</g>
</svg>
