<svg id="Multicolor" xmlns="http://www.w3.org/2000/svg" viewBox="0 0 100 112"><defs><style>.cls-1{fill:#e8f4fa;}.cls-17,.cls-2{fill:#fff;}.cls-23,.cls-3{fill:none;}.cls-17,.cls-21,.cls-22,.cls-3{stroke:#191816;}.cls-17,.cls-21,.cls-22,.cls-23,.cls-3{stroke-linecap:round;stroke-linejoin:round;}.cls-4{fill:#00b8f0;}.cls-5{fill:#4acfff;}.cls-6{fill:#009fd9;}.cls-7{fill:#ebcb00;}.cls-8{fill:#fff48c;}.cls-9{fill:#bdbec0;}.cls-10{fill:#e0e0e0;}.cls-11{fill:#ff6242;}.cls-12{fill:#ff866e;}.cls-13{fill:#191816;opacity:0.15;}.cls-14{fill:#00dfeb;}.cls-15{fill:#4aeff7;}.cls-16{fill:#00c9d4;}.cls-18,.cls-21{fill:#9ceb60;}.cls-19{fill:#6dd627;}.cls-20{fill:#c8ffa1;}.cls-22,.cls-24{fill:#c0dceb;}.cls-23{stroke:#e04122;}.cls-25{fill:#ffe500;}.cls-26{fill:#daedf7;}</style></defs><title>17- backpack-equipment</title><g id="Background"><g id="New_Symbol_29" data-name="New Symbol 29"><path class="cls-1" d="M89.84,56A40,40,0,1,0,13.4,72.5H86.27A39.7,39.7,0,0,0,89.84,56Z"/><path class="cls-2" d="M13.4,72.5a40,40,0,0,0,72.87,0Z"/><line class="cls-3" x1="10.84" y1="72.5" x2="88.84" y2="72.5"/><line class="cls-3" x1="6.34" y1="72.5" x2="8.84" y2="72.5"/><line class="cls-3" x1="90.84" y1="72.5" x2="93.34" y2="72.5"/></g></g><g id="Scene"><path class="cls-4" d="M38.85,64h-5.5a1,1,0,0,1-1-1V60a3,3,0,0,1,3-3h3.5Z"/><path class="cls-5" d="M35.35,57a3,3,0,0,0-3,3v1.5a3,3,0,0,1,3-3h3.5V57Z"/><path class="cls-4" d="M38.85,72.5h-3a2,2,0,0,1-2-2V64h5Z"/><rect class="cls-6" x="33.85" y="64" width="5" height="1.5"/><rect class="cls-6" x="36.35" y="57" width="2.5" height="15.5"/><path class="cls-3" d="M38.85,72.5h-3a2,2,0,0,1-2-2V64h5Z"/><path class="cls-3" d="M38.85,64h-5.5a1,1,0,0,1-1-1V60a3,3,0,0,1,3-3h3.5Z"/><path class="cls-4" d="M63.85,64h5.5a1,1,0,0,0,1-1V60a3,3,0,0,0-3-3h-3.5Z"/><path class="cls-5" d="M67.35,57a3,3,0,0,1,3,3v1.5a3,3,0,0,0-3-3h-3.5V57Z"/><path class="cls-4" d="M63.85,72.5h3a2,2,0,0,0,2-2V64h-5Z"/><rect class="cls-6" x="63.85" y="64" width="5" height="1.5"/><rect class="cls-6" x="63.85" y="57" width="2.5" height="15.5"/><path class="cls-3" d="M63.85,72.5h3a2,2,0,0,0,2-2V64h-5Z"/><path class="cls-3" d="M63.85,64h5.5a1,1,0,0,0,1-1V60a3,3,0,0,0-3-3h-3.5Z"/><path class="cls-7" d="M63.85,48.5h7.5a1,1,0,0,0,1-1V40a1,1,0,0,0-1-1h-7.5Z"/><path class="cls-8" d="M71.35,39a1,1,0,0,1,1,1v2.5a1,1,0,0,0-1-1h-7.5V39Z"/><path class="cls-3" d="M63.85,48.5h7.5a1,1,0,0,0,1-1V40a1,1,0,0,0-1-1h-7.5Z"/><line class="cls-3" x1="72.35" y1="45" x2="65.35" y2="45"/><path class="cls-7" d="M38.85,48.5h-7.5a1,1,0,0,1-1-1V40a1,1,0,0,1,1-1h7.5Z"/><path class="cls-8" d="M31.35,39a1,1,0,0,0-1,1v2.5a1,1,0,0,1,1-1h7.5V39Z"/><path class="cls-3" d="M38.85,48.5h-7.5a1,1,0,0,1-1-1V40a1,1,0,0,1,1-1h7.5Z"/><rect class="cls-4" x="38.85" y="48.5" width="25" height="24"/><rect class="cls-6" x="38.85" y="48.5" width="25" height="2"/><rect class="cls-3" x="38.85" y="48.5" width="25" height="24"/><path class="cls-9" d="M24.85,64a5.53,5.53,0,0,1,3,.89V63a1,1,0,0,0-1-1h-4a1,1,0,0,0-1,1v1.89A5.48,5.48,0,0,1,24.85,64Z"/><path class="cls-10" d="M27.85,63a1,1,0,0,0-1-1h-4a1,1,0,0,0-1,1v1a1,1,0,0,1,1-1h4a1,1,0,0,1,1,1Z"/><path class="cls-3" d="M24.85,64a5.53,5.53,0,0,1,3,.89V63a1,1,0,0,0-1-1h-4a1,1,0,0,0-1,1v1.89A5.48,5.48,0,0,1,24.85,64Z"/><path class="cls-11" d="M24.85,64a5.5,5.5,0,0,0-5.5,5.5v3h11v-3A5.5,5.5,0,0,0,24.85,64Z"/><path class="cls-12" d="M24.85,64a5.5,5.5,0,0,0-5.5,5.5V72a5.5,5.5,0,0,1,11,0V69.5A5.5,5.5,0,0,0,24.85,64Z"/><path class="cls-3" d="M24.85,64a5.5,5.5,0,0,0-5.5,5.5v3h11v-3A5.5,5.5,0,0,0,24.85,64Z"/><path class="cls-3" d="M87,59a1.19,1.19,0,0,1-.22,1,1.21,1.21,0,0,1-.93.45h-11a1.18,1.18,0,0,1-.93-.45,1.19,1.19,0,0,1-.23-1l1.08-4.61A3.17,3.17,0,0,1,77.85,52h5a3.16,3.16,0,0,1,3.07,2.43Z"/><path class="cls-13" d="M71.91,87.51a1.2,1.2,0,0,0,1-1.87l-3.52-5.29c1.44-.44,2.37-1.1,2.37-1.84,0-1.33-3-2.4-6.6-2.4a14.8,14.8,0,0,0-4.36.6H16a1.21,1.21,0,0,0-1,.53l-5.6,8.4a1.2,1.2,0,0,0,1,1.87Z"/><path class="cls-14" d="M22.64,74.91H64L67.9,82.8a1.18,1.18,0,0,1-1.05,1.71H16a2.4,2.4,0,0,1-2.4-2.4h0a3,3,0,0,1,5.69-1.32.48.48,0,0,0,.45.27.47.47,0,0,0,.43-.29Z"/><polygon class="cls-15" points="64.7 76.4 63.96 74.91 22.64 74.91 22 76.4 64.7 76.4"/><path class="cls-16" d="M15.65,83.2a3,3,0,0,1,3-3h.23a3,3,0,0,0-5.32,1.9,2.4,2.4,0,0,0,2.4,2.4H16A2.37,2.37,0,0,1,15.65,83.2Z"/><path class="cls-3" d="M22.64,74.91H64L67.9,82.8a1.18,1.18,0,0,1-1.05,1.71H16a2.4,2.4,0,0,1-2.4-2.4h0a3,3,0,0,1,5.69-1.32.48.48,0,0,0,.45.27.47.47,0,0,0,.43-.29Z"/><path class="cls-17" d="M13.56,82.11a3,3,0,0,1,5.69-1.32.48.48,0,0,0,.45.27.47.47,0,0,0,.43-.29l3-7.06a2.4,2.4,0,0,0-2.4-2.4C17.81,71.31,13.56,78.4,13.56,82.11Z"/><path class="cls-18" d="M53.16,84.51a2.4,2.4,0,0,1-2.4-2.4,1.8,1.8,0,0,0-1.8-1.8,3.6,3.6,0,0,1-3.6-3.6v-1.8H64L67.9,82.8a1.18,1.18,0,0,1-1.05,1.71Z"/><path class="cls-19" d="M64.44,75.87a6,6,0,0,1-3.38-1h-1.2V78.2c0,1.51,2.66,2.3,5.3,2.3a11.17,11.17,0,0,0,1.54-.1Z"/><polygon class="cls-20" points="64.7 76.4 63.96 74.91 45.36 74.91 45.36 76.4 64.7 76.4"/><path class="cls-3" d="M53.16,84.51a2.4,2.4,0,0,1-2.4-2.4,1.8,1.8,0,0,0-1.8-1.8,3.6,3.6,0,0,1-3.6-3.6v-1.8H64L67.9,82.8a1.18,1.18,0,0,1-1.05,1.71Z"/><path class="cls-21" d="M29.76,84.51a1.2,1.2,0,0,1-1.2-1.2v-1.2a2.4,2.4,0,0,1,0-4.8h6.6a1.8,1.8,0,1,1,0,3.6,1.79,1.79,0,0,0-1.8,1.8v.6a1.2,1.2,0,0,1-1.2,1.2Z"/><path class="cls-22" d="M60.36,77.31c0,1,2.15,1.8,4.8,1.8s4.8-.81,4.8-1.8v-3.6c0,1-2.15,1.8-4.8,1.8s-4.8-.81-4.8-1.8Z"/><path class="cls-1" d="M70,73.71c0,1-2.15,1.8-4.8,1.8s-4.8-.81-4.8-1.8,2.15-1.8,4.8-1.8S70,72.71,70,73.71Z"/><line class="cls-23" x1="65.16" y1="73.71" x2="69.96" y2="73.71"/><path class="cls-3" d="M70,73.71c0,1-2.15,1.8-4.8,1.8s-4.8-.81-4.8-1.8,2.15-1.8,4.8-1.8S70,72.71,70,73.71Z"/><rect class="cls-24" x="74.85" y="70" width="11" height="7" rx="1" ry="1"/><path class="cls-1" d="M84.85,70h-9a1,1,0,0,0-1,1v2.5a1,1,0,0,1,1-1h9a1,1,0,0,1,1,1V71A1,1,0,0,0,84.85,70Z"/><rect class="cls-3" x="74.85" y="70" width="11" height="7" rx="1" ry="1"/><rect class="cls-25" x="75.85" y="62" width="9" height="8"/><polygon class="cls-8" points="75.85 62 75.85 70 76.35 70 84.35 62 75.85 62"/><rect class="cls-3" x="75.85" y="62" width="9" height="8"/><line class="cls-3" x1="78.85" y1="62" x2="78.85" y2="70"/><line class="cls-3" x1="81.85" y1="62" x2="81.85" y2="70"/><path class="cls-24" d="M85.9,61.1a.59.59,0,0,1,0,.6.6.6,0,0,1-.52.3h-10a.6.6,0,0,1-.53-.3.64.64,0,0,1,0-.6l.61-1.21A1.6,1.6,0,0,1,76.85,59h7a1.6,1.6,0,0,1,1.44.89Z"/><path class="cls-1" d="M75.85,60.5h9a1.6,1.6,0,0,1,.88.27l-.44-.88A1.6,1.6,0,0,0,83.85,59h-7a1.6,1.6,0,0,0-1.45.89l-.44.88A1.63,1.63,0,0,1,75.85,60.5Z"/><path class="cls-3" d="M85.9,61.1a.59.59,0,0,1,0,.6.6.6,0,0,1-.52.3h-10a.6.6,0,0,1-.53-.3.64.64,0,0,1,0-.6l.61-1.21A1.6,1.6,0,0,1,76.85,59h7a1.6,1.6,0,0,1,1.44.89Z"/><line class="cls-3" x1="19.35" y1="63" x2="21.85" y2="63"/><line class="cls-3" x1="19.35" y1="61.5" x2="19.35" y2="64.5"/><line class="cls-3" x1="20.35" y1="58.5" x2="29.35" y2="58.5"/><line class="cls-3" x1="21.85" y1="58.5" x2="23.35" y2="62"/><line class="cls-3" x1="27.85" y1="58.5" x2="26.35" y2="62"/><rect class="cls-6" x="42.35" y="63" width="18" height="1.5"/><path class="cls-5" d="M55.85,57h-9a4.49,4.49,0,0,0-4.5,4.5v2a4.49,4.49,0,0,1,4.5-4.5h9a4.5,4.5,0,0,1,4.5,4.5v-2A4.5,4.5,0,0,0,55.85,57Z"/><path class="cls-3" d="M60.35,61.5a4.5,4.5,0,0,0-4.5-4.5h-9a4.49,4.49,0,0,0-4.5,4.5v11h18Z"/><path class="cls-4" d="M65.35,39a6,6,0,0,0-6-6h-16a6,6,0,0,0-6,6v8a1.5,1.5,0,0,0,1.5,1.5h25a1.5,1.5,0,0,0,1.5-1.5Z"/><path class="cls-5" d="M59.35,33h-16a6,6,0,0,0-6,6v3.5a6,6,0,0,1,6-6h16a6,6,0,0,1,6,6V39A6,6,0,0,0,59.35,33Z"/><path class="cls-3" d="M65.35,39a6,6,0,0,0-6-6h-16a6,6,0,0,0-6,6v8a1.5,1.5,0,0,0,1.5,1.5h25a1.5,1.5,0,0,0,1.5-1.5Z"/><path class="cls-26" d="M43.35,43a1,1,0,0,0-1,1v8.5a2,2,0,0,0,4,0V44a1,1,0,0,0-1-1Z"/><path class="cls-2" d="M45.35,43h-2a1,1,0,0,0-1,1v1.5a1,1,0,0,1,1-1h2a1,1,0,0,1,1,1V44A1,1,0,0,0,45.35,43Z"/><path class="cls-3" d="M43.35,43a1,1,0,0,0-1,1v8.5a2,2,0,0,0,4,0V44a1,1,0,0,0-1-1Z"/><line class="cls-3" x1="41.35" y1="51" x2="47.35" y2="51"/><path class="cls-26" d="M57.35,43a1,1,0,0,0-1,1v8.5a2,2,0,0,0,4,0V44a1,1,0,0,0-1-1Z"/><path class="cls-2" d="M59.35,43h-2a1,1,0,0,0-1,1v1.5a1,1,0,0,1,1-1h2a1,1,0,0,1,1,1V44A1,1,0,0,0,59.35,43Z"/><path class="cls-3" d="M57.35,43a1,1,0,0,0-1,1v8.5a2,2,0,0,0,4,0V44a1,1,0,0,0-1-1Z"/><line class="cls-3" x1="55.35" y1="51" x2="61.35" y2="51"/><line class="cls-3" x1="30.35" y1="45" x2="37.35" y2="45"/><line class="cls-3" x1="42.35" y1="63" x2="60.35" y2="63"/><path class="cls-26" d="M50.35,60.5a1,1,0,0,0-1,1v2a2,2,0,0,0,4,0v-2a1,1,0,0,0-1-1Z"/><path class="cls-2" d="M52.35,60.5h-2a1,1,0,0,0-1,1V63a1,1,0,0,1,1-1h2a1,1,0,0,1,1,1V61.5A1,1,0,0,0,52.35,60.5Z"/><path class="cls-3" d="M50.35,60.5a1,1,0,0,0-1,1v2a2,2,0,0,0,4,0v-2a1,1,0,0,0-1-1Z"/></g></svg>