<svg id="Outline_Version" data-name="Outline Version" xmlns="http://www.w3.org/2000/svg" viewBox="0 0 24 24"><title>os-system-apple</title><path d="M8.88,7.63a5.59,5.59,0,0,0-4.7,2.84c-1.81,3.14-.69,7.86,1.28,10.7C6.23,22.3,7.39,24,9.1,24h.1a4.44,4.44,0,0,0,1.68-.44,3.44,3.44,0,0,1,1.51-.37,3.22,3.22,0,0,1,1.43.35,4.32,4.32,0,0,0,1.83.43c1.76,0,2.79-1.53,3.61-2.74a11.6,11.6,0,0,0,1.45-3,.75.75,0,0,0-.44-.93A3.55,3.55,0,0,1,18.11,14h0a3.7,3.7,0,0,1,1.78-3.1.75.75,0,0,0,.21-1.06A5.28,5.28,0,0,0,16,7.59a6.17,6.17,0,0,0-2.94.6,4.1,4.1,0,0,1-.9.29,3.77,3.77,0,0,1-.94-.3A6.21,6.21,0,0,0,8.88,7.63Zm4.71,2a5,5,0,0,1,2.28-.5,3.91,3.91,0,0,1,2.54,1.07A5.08,5.08,0,0,0,16.61,14a5,5,0,0,0,2.46,4.33,10.19,10.19,0,0,1-1.06,2c-.83,1.21-1.49,2.07-2.4,2.09a2.81,2.81,0,0,1-1.21-.31,4.68,4.68,0,0,0-2-.47,4.93,4.93,0,0,0-2.1.49,3,3,0,0,1-1.15.32c-.91,0-1.69-1-2.46-2.16C5.22,18.21,3.88,14,5.47,11.22A4.09,4.09,0,0,1,8.9,9.13h0a4.83,4.83,0,0,1,1.7.45,4.25,4.25,0,0,0,1.49.4A4.21,4.21,0,0,0,13.58,9.59Z"/><path d="M11.91,6.7h.27a5,5,0,0,0,3.7-1.87h0A5.66,5.66,0,0,0,17.23.68.74.74,0,0,0,16.45,0,5.74,5.74,0,0,0,12.6,2,5.47,5.47,0,0,0,11.23,6,.75.75,0,0,0,11.91,6.7ZM13.74,3a4.52,4.52,0,0,1,2-1.29,4.47,4.47,0,0,1-1,2.22,3.83,3.83,0,0,1-2,1.27A4.41,4.41,0,0,1,13.74,3Z"/></svg>