<?xml version="1.0" encoding="utf-8"?>
<!-- Generator: Adobe Illustrator 22.1.0, SVG Export Plug-In . SVG Version: 6.00 Build 0)  -->
<svg version="1.1" id="Regular" xmlns="http://www.w3.org/2000/svg" xmlns:xlink="http://www.w3.org/1999/xlink" x="0px" y="0px"
	 viewBox="0 0 24 24" style="enable-background:new 0 0 24 24;" xml:space="preserve">
<title>outdoors-flame-lantern</title>
<g>
	<path d="M5.989,24c-0.414,0-0.75-0.336-0.75-0.75c0-0.332,0.045-0.662,0.135-0.985l-1.82-0.787
		c-2.529-0.86-4.007-3.473-3.439-6.085L3.011,3.84C3.304,2.489,4.536,1.5,5.937,1.5h1.554c0-0.827,0.673-1.5,1.5-1.5h6.003
		c0.827,0,1.5,0.673,1.5,1.5h1.556c1.403,0,2.635,0.994,2.933,2.363l2.887,11.507c0.572,2.63-0.905,5.248-3.434,6.109l-1.826,0.79
		c0.089,0.323,0.134,0.652,0.134,0.982c0,0.414-0.336,0.75-0.75,0.75H5.989z M17.116,22.5c-0.313-0.879-1.159-1.5-2.121-1.5H8.989
		c-0.962,0-1.808,0.621-2.121,1.5H17.116z M17.092,20.147c0.319,0.216,0.603,0.478,0.842,0.779l1.936-0.837
		c0.024-0.01,0.042-0.017,0.061-0.023c1.821-0.607,2.887-2.479,2.479-4.354L19.523,4.204C19.37,3.502,18.752,3,18.052,3h-1.559
		l-0.001,0.751c0,0.248-0.122,0.468-0.308,0.604c1.995,2.877,3.312,7.33,3.312,9.895C19.456,16.443,18.586,18.563,17.092,20.147z
		 M5.937,3C5.237,3,4.62,3.497,4.471,4.181L1.575,15.735c-0.403,1.857,0.664,3.724,2.484,4.331c0.019,0.006,0.037,0.013,0.056,0.021
		l1.936,0.837c0.239-0.301,0.524-0.564,0.844-0.779c-1.492-1.583-2.361-3.699-2.4-5.881c0-2.573,1.316-7.027,3.309-9.905
		C7.615,4.222,7.491,4,7.491,3.75V3H5.937z M15.612,19.5c1.481-1.348,2.347-3.258,2.383-5.264c0-2.573-1.557-7.332-3.583-9.736
		H9.577c-2.026,2.405-3.583,7.167-3.583,9.75c0.036,1.994,0.902,3.902,2.382,5.25h0.755c-0.622-0.739-0.966-1.669-0.966-2.66
		c-0.093-1.416,0.673-2.799,1.954-3.498c0.11-0.06,0.234-0.092,0.36-0.092c0.115,0,0.231,0.027,0.334,0.078
		c0.22,0.11,0.372,0.32,0.408,0.562c0.024,0.163,0.117,0.305,0.247,0.395c0.356-0.993,0.165-2.113-0.522-2.933
		c-0.21-0.251-0.234-0.606-0.059-0.883c0.138-0.218,0.375-0.349,0.633-0.349c0.064,0,0.128,0.008,0.19,0.025
		c3.025,0.791,5.033,3.628,4.773,6.745c-0.016,0.966-0.364,1.882-0.977,2.61H15.612z M10.215,15.16
		c-0.388,0.447-0.59,1.032-0.551,1.632c0.001,1.504,1.195,2.708,2.661,2.708c1.469-0.02,2.64-1.193,2.66-2.67
		c0.001-0.024,0.001-0.043,0.004-0.062c0.147-1.715-0.593-3.333-1.928-4.336c0.198,1.045,0.024,2.141-0.511,3.075
		c-0.124,0.216-0.345,0.356-0.593,0.375c-0.054,0.004-0.107,0.006-0.16,0.006C11.179,15.888,10.606,15.617,10.215,15.16z M14.992,3
		l0.002-1.501l-6,0.001c-0.002,0-0.003,0-0.004,0.001l0,0.697C8.993,2.212,8.994,2.231,8.994,2.25c0,0.012-0.001,0.033-0.003,0.051
		V3H14.992z"/>
</g>
</svg>
