<?xml version="1.0" encoding="utf-8"?>
<!-- Generator: Adobe Illustrator 22.1.0, SVG Export Plug-In . SVG Version: 6.00 Build 0)  -->
<svg version="1.1" id="Layer_1" xmlns="http://www.w3.org/2000/svg" xmlns:xlink="http://www.w3.org/1999/xlink" x="0px" y="0px"
	 viewBox="0 0 24 24" style="enable-background:new 0 0 24 24;" xml:space="preserve">
<title>pin-location-2</title>
<g>
	<path d="M12,19.5c-0.414,0-0.75-0.336-0.75-0.75v-7.558C8.7,10.824,6.75,8.608,6.75,6c0-2.895,2.355-5.25,5.25-5.25
		c2.895,0,5.25,2.355,5.25,5.25c0,2.607-1.95,4.824-4.5,5.192v7.558C12.75,19.164,12.414,19.5,12,19.5z M12,2.25
		C9.932,2.25,8.25,3.932,8.25,6S9.932,9.75,12,9.75c2.068,0,3.75-1.682,3.75-3.75S14.068,2.25,12,2.25z"/>
	<path d="M11.625,6c-0.044,0-0.088-0.004-0.131-0.012c-0.513-0.06-0.922-0.47-0.982-0.982C10.504,4.963,10.5,4.919,10.5,4.875
		s0.004-0.088,0.012-0.131c0.06-0.513,0.47-0.922,0.982-0.982c0.043-0.008,0.087-0.012,0.131-0.012s0.088,0.004,0.131,0.012
		c0.513,0.061,0.922,0.47,0.982,0.983c0.008,0.042,0.011,0.086,0.011,0.13s-0.004,0.088-0.011,0.13
		c-0.06,0.513-0.469,0.922-0.982,0.983C11.713,5.996,11.669,6,11.625,6z"/>
	<path d="M12,23.255c-6.414,0-11.25-1.937-11.25-4.505c0-2.135,3.119-3.797,8.141-4.338c0.027-0.003,0.054-0.004,0.081-0.004
		c0.383,0,0.703,0.288,0.745,0.67c0.021,0.199-0.036,0.395-0.162,0.551c-0.126,0.156-0.304,0.254-0.504,0.275
		C4.794,16.362,2.25,17.711,2.25,18.75c0,1.545,4.738,3.005,9.75,3.005s9.75-1.458,9.75-3c0-1.046-2.554-2.4-6.829-2.854
		c-0.199-0.021-0.378-0.118-0.504-0.274c-0.126-0.156-0.184-0.352-0.162-0.551c0.04-0.382,0.36-0.671,0.743-0.671
		c0.028,0,0.056,0.002,0.085,0.005c5.037,0.535,8.168,2.2,8.168,4.345C23.25,21.321,18.414,23.255,12,23.255z"/>
</g>
</svg>
