<?xml version="1.0" encoding="utf-8"?>
<!-- Generator: Adobe Illustrator 22.1.0, SVG Export Plug-In . SVG Version: 6.00 Build 0)  -->
<svg version="1.1" id="Layer_1" xmlns="http://www.w3.org/2000/svg" xmlns:xlink="http://www.w3.org/1999/xlink" x="0px" y="0px"
	 viewBox="0 0 24 24" style="enable-background:new 0 0 24 24;" xml:space="preserve">
<title>presentation-analytics</title>
<g>
	<path d="M19.191,24c-0.176,0-0.347-0.062-0.481-0.175l-2.234-1.868L13.95,23.85C13.819,23.948,13.663,24,13.5,24
		c-0.235,0-0.459-0.112-0.6-0.3c-0.248-0.331-0.181-0.802,0.15-1.05l2.7-2.025V16.5H15c-0.414,0-0.75-0.336-0.75-0.75
		S14.586,15,15,15h7.1c0.22-0.001,0.4-0.184,0.4-0.407V4.159c0-0.224-0.181-0.408-0.405-0.409H12c-0.414,0-0.75-0.336-0.75-0.75
		S11.586,2.25,12,2.25h3.75v-1.5C15.75,0.336,16.086,0,16.5,0s0.75,0.336,0.75,0.75v1.5h4.85c1.051,0.006,1.902,0.863,1.9,1.911
		v10.431c0.002,1.046-0.848,1.903-1.896,1.909H17.25v4.15l2.422,2.025c0.154,0.128,0.248,0.309,0.266,0.509
		c0.018,0.199-0.043,0.394-0.172,0.548C19.624,23.902,19.414,24,19.191,24z"/>
	<path d="M13.64,10.475c-0.201,0-0.389-0.078-0.531-0.22c-0.142-0.142-0.219-0.33-0.219-0.53c0-0.2,0.078-0.389,0.22-0.53
		l1.827-1.825c0.25-0.25,0.583-0.387,0.938-0.387c0.354,0,0.687,0.137,0.937,0.387l1.296,1.297l2.314-2.315
		c0.142-0.142,0.33-0.22,0.53-0.22l0,0c0.2,0,0.389,0.078,0.53,0.22c0.142,0.141,0.22,0.33,0.22,0.53c0,0.2-0.078,0.389-0.22,0.53
		l-2.437,2.437c-0.251,0.25-0.584,0.388-0.938,0.388s-0.687-0.137-0.938-0.387l-1.296-1.297l-1.705,1.703
		C14.029,10.397,13.84,10.475,13.64,10.475z"/>
	<path d="M6,7.5c-2.068,0-3.75-1.682-3.75-3.75S3.932,0,6,0s3.75,1.682,3.75,3.75S8.068,7.5,6,7.5z M6,1.5
		c-1.241,0-2.25,1.009-2.25,2.25S4.759,6,6,6s2.25-1.009,2.25-2.25S7.241,1.5,6,1.5z"/>
	<path d="M3.75,24c-0.387,0-0.708-0.29-0.746-0.675L2.321,16.5H0.75C0.336,16.5,0,16.164,0,15.75V13.5c0-3.308,2.692-6,6-6
		s6,2.692,6,6v2.25c0,0.414-0.336,0.75-0.75,0.75H9.679l-0.682,6.825C8.958,23.71,8.637,24,8.25,24H3.75z M7.571,22.5l0.682-6.825
		C8.292,15.29,8.613,15,9,15h1.5v-1.5C10.5,11.019,8.481,9,6,9s-4.5,2.019-4.5,4.5V15H3c0.387,0,0.708,0.29,0.746,0.675L4.429,22.5
		H7.571z"/>
</g>
</svg>
