<?xml version="1.0" encoding="utf-8"?>
<!-- Generator: Adobe Illustrator 22.1.0, SVG Export Plug-In . SVG Version: 6.00 Build 0)  -->
<svg version="1.1" id="Layer_1" xmlns="http://www.w3.org/2000/svg" xmlns:xlink="http://www.w3.org/1999/xlink" x="0px" y="0px"
	 viewBox="0 0 24 24" style="enable-background:new 0 0 24 24;" xml:space="preserve">
<title>ruler</title>
<g>
	<path d="M6.696,23.794c-0.602,0-1.167-0.234-1.591-0.658l-4.243-4.243c-0.425-0.425-0.659-0.99-0.659-1.591
		s0.234-1.166,0.659-1.591L15.712,0.862c0.425-0.425,0.99-0.659,1.591-0.659s1.166,0.234,1.591,0.659l4.243,4.243
		c0.425,0.425,0.659,0.99,0.659,1.591s-0.234,1.166-0.659,1.591L8.287,23.136C7.863,23.56,7.298,23.794,6.696,23.794z M1.923,16.772
		c-0.142,0.142-0.22,0.33-0.22,0.53c0,0.2,0.078,0.389,0.22,0.531l4.243,4.242c0.141,0.141,0.33,0.219,0.53,0.219
		s0.389-0.078,0.53-0.219L22.076,7.226c0.142-0.142,0.22-0.33,0.22-0.53s-0.078-0.389-0.22-0.53l-4.243-4.243
		c-0.142-0.142-0.33-0.22-0.53-0.22c-0.2,0-0.389,0.078-0.531,0.22l-2.121,2.121l1.591,1.591c0.142,0.141,0.22,0.33,0.22,0.53
		c0,0.2-0.078,0.389-0.22,0.53c-0.142,0.142-0.33,0.22-0.53,0.22s-0.389-0.078-0.53-0.22l-1.591-1.591l-2.121,2.121l1.591,1.591
		c0.142,0.141,0.22,0.33,0.22,0.53s-0.078,0.389-0.22,0.53s-0.33,0.22-0.53,0.22s-0.389-0.078-0.53-0.22l-1.591-1.591l-2.121,2.121
		l1.591,1.591c0.292,0.292,0.292,0.768,0,1.061c-0.142,0.142-0.33,0.22-0.53,0.22s-0.389-0.078-0.53-0.22l-1.591-1.591L5.106,13.59
		l1.591,1.591c0.142,0.142,0.22,0.33,0.22,0.53s-0.078,0.389-0.22,0.53c-0.141,0.142-0.33,0.22-0.53,0.22
		c-0.2,0-0.389-0.078-0.53-0.22L4.045,14.65L1.923,16.772z"/>
</g>
</svg>
