<?xml version="1.0" encoding="utf-8"?>
<!-- Generator: Adobe Illustrator 22.1.0, SVG Export Plug-In . SVG Version: 6.00 Build 0)  -->
<svg version="1.1" id="Layer_1" xmlns="http://www.w3.org/2000/svg" xmlns:xlink="http://www.w3.org/1999/xlink" x="0px" y="0px"
	 viewBox="0 0 24 24" style="enable-background:new 0 0 24 24;" xml:space="preserve">
<title>school-bag</title>
<g>
	<path d="M2.707,24C1.214,24,0,22.786,0,21.293v-5.086C0,14.715,1.214,13.5,2.707,13.5H3.75V7.75c0-2.547,2.015-4.632,4.534-4.745
		c0.097-0.656,0.375-1.264,0.812-1.774c0.616-0.718,1.475-1.153,2.419-1.225c0.089-0.007,0.179-0.01,0.268-0.01
		c0.052,0,0.104,0.001,0.155,0.003c0.043-0.001,0.085-0.002,0.128-0.002c0.889,0,1.742,0.332,2.4,0.934
		c0.601,0.549,0.989,1.274,1.114,2.07c2.582,0.043,4.67,2.157,4.67,4.749v5.946h1.043c1.49,0,2.705,1.213,2.707,2.703v4.892
		c0,1.493-1.214,2.707-2.707,2.707h-1.755C19.524,23.999,19.51,24,19.5,24H2.707z M18.75,22.5V7.75c0-1.792-1.458-3.25-3.25-3.25h-7
		c-1.792,0-3.25,1.458-3.25,3.25V22.5H18.75z M1.5,21.293c0,0.666,0.542,1.207,1.207,1.207H3.75v-4.565H1.5V21.293z M21.293,22.498
		c0.666,0,1.207-0.542,1.207-1.207V18h-2.25v4.498H21.293z M22.5,16.5v-0.1c-0.001-0.664-0.542-1.204-1.207-1.204H20.25V16.5H22.5z
		 M3.75,16.435V15H2.707C2.042,15,1.5,15.542,1.5,16.207v0.228H3.75z M14.047,3C13.944,2.632,13.74,2.3,13.455,2.038
		c-0.381-0.349-0.876-0.541-1.394-0.541c-0.031,0-0.118,0.003-0.124,0.003L11.9,1.499c-0.042-0.002-0.079-0.003-0.116-0.003
		c-0.052,0-0.104,0.002-0.155,0.006C10.762,1.568,10.041,2.185,9.817,3H14.047z"/>
	<path d="M8.5,21c-0.965,0-1.75-0.785-1.75-1.75V14.5c0-0.965,0.785-1.75,1.75-1.75h7c0.965,0,1.75,0.785,1.75,1.75v4.75
		c0,0.965-0.785,1.75-1.75,1.75H8.5z M8.25,19.25c0,0.138,0.112,0.25,0.25,0.25h7c0.138,0,0.25-0.112,0.25-0.25v-2H13.5V18
		c0,0.414-0.336,0.75-0.75,0.75S12,18.414,12,18v-0.75H8.25V19.25z M15.75,15.75V14.5c0-0.138-0.112-0.25-0.25-0.25h-7
		c-0.138,0-0.25,0.112-0.25,0.25v1.25H15.75z"/>
</g>
</svg>
