<?xml version="1.0" encoding="UTF-8" standalone="no"?>
<svg
   xmlns:dc="http://purl.org/dc/elements/1.1/"
   xmlns:cc="http://creativecommons.org/ns#"
   xmlns:rdf="http://www.w3.org/1999/02/22-rdf-syntax-ns#"
   xmlns:svg="http://www.w3.org/2000/svg"
   xmlns="http://www.w3.org/2000/svg"
   viewBox="0 0 38.666668 38.666668"
   height="38.666668"
   width="38.666668"
   xml:space="preserve"
   id="svg2"
   version="1.1"><metadata
     id="metadata8"><rdf:RDF><cc:Work
         rdf:about=""><dc:format>image/svg+xml</dc:format><dc:type
           rdf:resource="http://purl.org/dc/dcmitype/StillImage" /></cc:Work></rdf:RDF></metadata><defs
     id="defs6"><clipPath
       id="clipPath18"
       clipPathUnits="userSpaceOnUse"><path
         id="path16"
         d="M 2.832,29 C 1.274,29 0,27.725 0,26.168 v 0 V 2.832 C 0,1.274 1.274,0 2.832,0 V 0 H 26.168 C 27.725,0 29,1.274 29,2.832 v 0 23.336 C 29,27.725 27.725,29 26.168,29 v 0 z" /></clipPath><linearGradient
       id="linearGradient28"
       spreadMethod="pad"
       gradientTransform="matrix(-18.768589,32.508148,32.508148,18.768589,23.884294,-1.7540741)"
       gradientUnits="userSpaceOnUse"
       y2="0"
       x2="1"
       y1="0"
       x1="0"><stop
         id="stop24"
         offset="0"
         style="stop-opacity:1;stop-color:#0091d2" /><stop
         id="stop26"
         offset="1"
         style="stop-opacity:1;stop-color:#00bee4" /></linearGradient><clipPath
       id="clipPath38"
       clipPathUnits="userSpaceOnUse"><path
         id="path36"
         d="M 0,29 H 29 V 0 H 0 Z" /></clipPath></defs><g
     transform="matrix(1.3333333,0,0,-1.3333333,0,38.666667)"
     id="g10"><g
       id="g12"><g
         clip-path="url(#clipPath18)"
         id="g14"><g
           id="g20"><g
             id="g22"><path
               id="path30"
               style="fill:url(#linearGradient28);stroke:none"
               d="M 2.832,29 C 1.274,29 0,27.725 0,26.168 v 0 V 2.832 C 0,1.274 1.274,0 2.832,0 V 0 H 26.168 C 27.725,0 29,1.274 29,2.832 v 0 23.336 C 29,27.725 27.725,29 26.168,29 v 0 z" /></g></g></g></g><g
       id="g32"><g
         clip-path="url(#clipPath38)"
         id="g34"><g
           transform="translate(22.9082,14.2158)"
           id="g40"><path
             id="path42"
             style="fill:#ffffff;fill-opacity:1;fill-rule:nonzero;stroke:none"
             d="m 0,0 c -1.705,-0.229 -3.447,-0.49 -5.152,-0.719 -2.121,-0.302 -4.28,-0.605 -6.405,-0.909 -2.008,-0.266 -3.979,-0.568 -5.984,-0.83 -0.074,0 -0.149,-0.037 -0.191,-0.037 -0.378,0 -0.453,0.074 -0.415,0.415 0.112,1.134 0.149,2.271 0.228,3.404 0,0.266 0.038,0.569 0.038,0.831 0.037,0.49 0.149,0.643 0.607,0.755 3.106,0.681 6.212,1.362 9.319,2.08 2.274,0.531 4.582,1.022 6.857,1.553 0.075,0 0.113,0.038 0.191,0.038 0.416,0.074 0.57,0 0.607,-0.416 C -0.15,5.032 0.004,3.936 0.153,2.798 0.266,2.08 0.345,1.362 0.457,0.644 0.569,0.153 0.494,0.037 0,0 M 2.199,-0.49 C 2.05,0.34 1.896,1.175 1.746,2.005 1.405,3.782 1.102,5.596 0.761,7.377 0.686,7.792 0.532,7.867 0.153,7.755 -0.981,7.452 -2.158,7.224 -3.294,6.883 -4.279,6.581 -5.228,6.734 -6.059,7.374 -6.288,7.523 -6.513,7.676 -6.778,7.826 -7.231,8.092 -7.689,8.278 -8.143,8.544 -8.633,8.885 -9.128,8.81 -9.619,8.544 -9.731,8.469 -9.847,8.353 -9.731,8.129 -9.619,7.938 -9.465,7.938 -9.278,8.054 -8.824,8.357 -8.367,8.283 -7.914,8.017 -7.382,7.676 -6.815,7.374 -6.283,7.033 -5.942,6.842 -5.639,6.655 -5.261,6.427 -5.373,6.389 -5.41,6.352 -5.452,6.352 c -2.35,-0.569 -4.699,-1.171 -7.044,-1.74 -0.57,-0.149 -1.098,-0.037 -1.593,0.266 -0.682,0.453 -1.439,0.793 -2.158,1.212 -0.378,0.229 -0.757,0.113 -1.135,-0.074 -0.113,-0.075 -0.15,-0.15 -0.113,-0.303 0.037,-0.112 0.15,-0.15 0.266,-0.15 0.15,0 0.304,0.038 0.454,0.112 0.229,0.15 0.416,0.113 0.644,-0.037 0.57,-0.341 1.135,-0.643 1.668,-0.984 0.15,-0.075 0.453,-0.15 0.416,-0.303 -0.038,-0.191 -0.341,-0.228 -0.533,-0.266 -1.135,-0.266 -2.274,-0.568 -3.41,-0.83 -0.415,-0.112 -0.532,-0.229 -0.569,-0.644 -0.112,-1.399 -0.229,-2.836 -0.378,-4.234 -0.042,-0.494 -0.117,-0.988 -0.117,-1.441 0,-0.34 0.15,-0.49 0.491,-0.49 0.149,0 0.34,0 0.49,0.037 0.948,0.113 1.855,0.192 2.803,0.303 1.514,0.15 3.032,0.304 4.508,0.531 1.855,0.267 3.597,0 5.19,-1.058 1.251,-0.83 2.195,-1.931 2.956,-3.213 0.229,-0.415 0.453,-0.83 0.72,-1.25 0.112,0.304 0.075,0.569 0.037,0.872 -0.229,1.212 -0.229,2.42 -0.075,3.591 0.192,1.25 0.911,1.969 2.121,2.229 0.453,0.113 0.911,0.113 1.364,0.15 0.648,0.075 0.761,0.266 0.648,0.872" /></g></g></g></g></svg>