<svg xmlns="http://www.w3.org/2000/svg" width="24" height="24" viewBox="0 0 24 24" xmlns:xlink="http://www.w3.org/1999/xlink"><defs><path id="a" d="M.003 11.243V.013H5.29v11.23z"/></defs><g fill="none" fill-rule="evenodd"><g transform="translate(0 6.443)"><mask id="b" fill="#fff"><use xlink:href="#a"/></mask><path fill="#F2B600" d="M5.29 8.053l-.83 3.125-3.037.065A12.04 12.04 0 0 1 0 5.543C0 3.55.48 1.67 1.335.014l2.704.5L5.223 3.22a7.196 7.196 0 0 0-.383 2.324c0 .882.16 1.728.45 2.51" mask="url(#b)"/></g><path fill="#3579EF" d="M23.79 9.826c.138.725.21 1.475.21 2.24a11.957 11.957 0 0 1-4.496 9.356l-3.43-.175-.487-3.024a7.153 7.153 0 0 0 3.083-3.65h-6.428V9.825H23.79"/><path fill="#22A247" d="M19.49 21.355A11.896 11.896 0 0 1 11.995 24c-4.56 0-8.523-2.556-10.545-6.318l3.88-3.185a7.118 7.118 0 0 0 6.665 4.633c1.312 0 2.54-.356 3.595-.977l3.9 3.202"/><path fill="#E53C20" d="M19.65 2.758l-3.896 3.177a7.127 7.127 0 0 0-3.78-1.077c-3.137 0-5.8 2.01-6.766 4.806L1.288 6.47A12.038 12.038 0 0 1 11.974 0c2.92 0 5.595 1.035 7.678 2.758"/></g></svg>