<?xml version="1.0" encoding="utf-8"?>
<!-- Generator: Adobe Illustrator 22.1.0, SVG Export Plug-In . SVG Version: 6.00 Build 0)  -->
<svg version="1.1" id="Layer_1" xmlns="http://www.w3.org/2000/svg" xmlns:xlink="http://www.w3.org/1999/xlink" x="0px" y="0px"
	 viewBox="0 0 24 24" style="enable-background:new 0 0 24 24;" xml:space="preserve">
<title>style-one-pin-star</title>
<g>
	<path d="M14.479,14.251c-0.199,0-0.399-0.049-0.577-0.143L12,13.113l-1.904,0.995c-0.177,0.093-0.376,0.142-0.575,0.142
		c-0.259,0-0.508-0.08-0.72-0.232c-0.38-0.267-0.576-0.74-0.497-1.203l0.364-2.112L7.123,9.204C6.788,8.881,6.666,8.385,6.812,7.942
		c0.15-0.449,0.533-0.768,0.999-0.833l2.132-0.308c0,0,0.952-1.92,0.953-1.922c0.213-0.418,0.636-0.677,1.106-0.677
		c0.193,0,0.386,0.046,0.559,0.134c0.236,0.119,0.423,0.307,0.543,0.543l0.953,1.923l2.135,0.308
		c0.463,0.065,0.845,0.382,0.995,0.828c0.147,0.447,0.024,0.944-0.312,1.268l-1.545,1.498l0.365,2.111
		c0.08,0.464-0.118,0.938-0.502,1.208C14.986,14.171,14.738,14.251,14.479,14.251z M9.817,9.727c0.29,0.281,0.423,0.687,0.355,1.084
		l-0.297,1.719l1.55-0.81c0.175-0.093,0.374-0.142,0.574-0.142c0.2,0,0.4,0.049,0.577,0.143l1.547,0.809l-0.296-1.717
		c-0.067-0.401,0.066-0.806,0.355-1.087l1.25-1.212l-1.726-0.249c-0.4-0.056-0.748-0.307-0.929-0.67L12,6.028l-0.776,1.566
		c-0.183,0.365-0.532,0.616-0.933,0.673L8.567,8.515L9.817,9.727z"/>
	<path d="M12,24c-0.308,0-0.59-0.193-0.7-0.481l-1.656-4.306c-4.296-1.072-7.393-5.017-7.394-9.459
		c-0.001-5.376,4.372-9.751,9.748-9.752c5.377,0,9.751,4.373,9.752,9.748c0.001,4.443-3.096,8.391-7.394,9.463L12.7,23.519
		C12.589,23.807,12.308,24,12,24z M11.998,1.502C7.449,1.503,3.749,5.204,3.75,9.753c0.001,3.903,2.776,7.301,6.6,8.082
		c0.252,0.052,0.458,0.226,0.55,0.466L12,21.16l1.1-2.86c0.093-0.24,0.298-0.414,0.55-0.466c3.825-0.781,6.601-4.181,6.6-8.085
		C20.249,5.202,16.548,1.502,12,1.502l-0.002-0.375L11.998,1.502z"/>
</g>
</svg>
