<?xml version="1.0" encoding="utf-8"?>
<!-- Generator: Adobe Illustrator 22.1.0, SVG Export Plug-In . SVG Version: 6.00 Build 0)  -->
<svg version="1.1" id="Layer_1" xmlns="http://www.w3.org/2000/svg" xmlns:xlink="http://www.w3.org/1999/xlink" x="0px" y="0px"
	 viewBox="0 0 24 24" style="enable-background:new 0 0 24 24;" xml:space="preserve">
<title>style-one-pin-target</title>
<g>
	<path d="M12.25,16.5c-0.414,0-0.75-0.336-0.75-0.75v-0.809C9.22,14.61,7.39,12.78,7.058,10.5H6.25c-0.414,0-0.75-0.336-0.75-0.75
		S5.836,9,6.25,9h0.808C7.39,6.72,9.22,4.889,11.5,4.558V3.75C11.5,3.336,11.836,3,12.25,3S13,3.336,13,3.75v0.808
		C15.28,4.889,17.11,6.72,17.441,9h0.809C18.664,9,19,9.336,19,9.75s-0.336,0.75-0.75,0.75h-0.809
		C17.11,12.78,15.28,14.61,13,14.941v0.809C13,16.163,12.664,16.5,12.25,16.5z M8.577,10.5c0.298,1.471,1.452,2.625,2.923,2.923
		V12.75c0-0.414,0.336-0.75,0.75-0.75S13,12.336,13,12.75v0.673c1.471-0.298,2.625-1.452,2.923-2.923H15.25
		c-0.414,0-0.75-0.336-0.75-0.75S14.836,9,15.25,9h0.673C15.625,7.529,14.471,6.375,13,6.077V6.75c0,0.414-0.336,0.75-0.75,0.75
		S11.5,7.163,11.5,6.75V6.077C10.029,6.375,8.875,7.529,8.577,9H9.25C9.664,9,10,9.336,10,9.75S9.664,10.5,9.25,10.5H8.577z"/>
	<path d="M12.25,24c-0.308,0-0.59-0.193-0.7-0.481l-1.656-4.306C5.598,18.141,2.501,14.195,2.5,9.754
		c-0.001-5.376,4.372-9.751,9.748-9.752c5.377,0,9.751,4.373,9.752,9.748c0.001,4.443-3.096,8.391-7.394,9.463l-1.656,4.306
		C12.839,23.807,12.558,24,12.25,24z M12.248,1.502C7.699,1.503,3.999,5.204,4,9.753c0.001,3.903,2.776,7.301,6.6,8.082
		c0.252,0.052,0.458,0.226,0.55,0.466l1.1,2.859l1.1-2.86c0.093-0.24,0.298-0.414,0.55-0.466c3.825-0.781,6.601-4.181,6.6-8.085
		c-0.001-4.548-3.702-8.248-8.25-8.248l-0.002-0.375L12.248,1.502z"/>
</g>
</svg>
