<?xml version="1.0" encoding="utf-8"?>
<!-- Generator: Adobe Illustrator 22.1.0, SVG Export Plug-In . SVG Version: 6.00 Build 0)  -->
<svg version="1.1" id="Layer_1" xmlns="http://www.w3.org/2000/svg" xmlns:xlink="http://www.w3.org/1999/xlink" x="0px" y="0px"
	 viewBox="0 0 24 24" style="enable-background:new 0 0 24 24;" xml:space="preserve">
<title>sync-location</title>
<g>
	<path d="M11.75,10.5C9.682,10.5,8,8.818,8,6.75S9.682,3,11.75,3c2.068,0,3.75,1.682,3.75,3.75S13.818,10.5,11.75,10.5z M11.75,4.5
		c-1.241,0-2.25,1.009-2.25,2.25S10.509,9,11.75,9C12.991,9,14,7.991,14,6.75S12.991,4.5,11.75,4.5z"/>
	<path d="M11.747,17.556c-0.339,0-0.66-0.112-0.928-0.323c-0.091-0.071-0.174-0.154-0.247-0.247C8.491,14.354,5,9.524,5,6.75
		C5,3.028,8.028,0,11.75,0s6.75,3.028,6.75,6.75c0,2.781-3.492,7.607-5.574,10.236c-0.248,0.314-0.603,0.513-1.002,0.56
		C11.866,17.553,11.806,17.556,11.747,17.556z M11.75,1.5C8.855,1.5,6.5,3.855,6.5,6.75c0,1.967,2.712,6.097,5.249,9.306
		C14.288,12.85,17,8.722,17,6.75C17,3.855,14.645,1.5,11.75,1.5z"/>
	<path d="M11,24c-0.2,0-0.389-0.078-0.53-0.22c-0.292-0.292-0.292-0.768,0-1.061l0.247-0.247c-5.456-0.246-9.467-2.422-9.467-5.226
		c0-1.553,1.224-2.95,3.447-3.933C4.793,13.271,4.895,13.25,5,13.25c0.297,0,0.566,0.175,0.686,0.447
		c0.167,0.378-0.005,0.822-0.383,0.989C3.704,15.393,2.75,16.35,2.75,17.247c0,1.829,3.597,3.476,7.905,3.718L10.47,20.78
		c-0.292-0.292-0.292-0.768,0-1.061c0.142-0.142,0.33-0.22,0.53-0.22s0.389,0.078,0.53,0.22l1.483,1.483
		c0.145,0.128,0.237,0.332,0.237,0.544c0,0.011,0,0.022-0.001,0.033c-0.004,0.083-0.021,0.159-0.048,0.232
		c-0.002,0.005-0.011,0.03-0.013,0.035c-0.031,0.069-0.069,0.128-0.114,0.183c-0.013,0.019-0.028,0.037-0.042,0.051l-1.5,1.5
		C11.389,23.922,11.2,24,11,24z"/>
	<path d="M16.25,21.993c-0.348,0-0.648-0.236-0.729-0.575c-0.047-0.195-0.015-0.396,0.09-0.567c0.104-0.171,0.27-0.291,0.465-0.338
		c2.796-0.672,4.675-1.984,4.675-3.264c0-0.895-0.951-1.851-2.545-2.557c-0.378-0.168-0.549-0.612-0.381-0.99
		c0.12-0.271,0.389-0.446,0.685-0.446c0.105,0,0.208,0.022,0.304,0.064c2.217,0.983,3.437,2.378,3.437,3.929
		c0,2.049-2.232,3.859-5.825,4.722C16.367,21.986,16.308,21.993,16.25,21.993z"/>
</g>
</svg>
