<?xml version="1.0" encoding="utf-8"?>
<!-- Generator: Adobe Illustrator 22.1.0, SVG Export Plug-In . SVG Version: 6.00 Build 0)  -->
<svg version="1.1" id="Layer_1" xmlns="http://www.w3.org/2000/svg" xmlns:xlink="http://www.w3.org/1999/xlink" x="0px" y="0px"
	 viewBox="0 0 24 24" style="enable-background:new 0 0 24 24;" xml:space="preserve">
<title>user-network</title>
<g>
	<path d="M6.75,6.469c-0.159,0-0.311-0.049-0.44-0.143l-1.4-1.015C4.373,5.757,3.706,6,3,6C1.346,6,0,4.654,0,3s1.346-3,3-3
		s3,1.346,3,3c0,0.374-0.072,0.748-0.209,1.097l1.4,1.015c0.162,0.118,0.269,0.291,0.3,0.489c0.032,0.198-0.016,0.396-0.133,0.558
		C7.217,6.353,6.989,6.469,6.75,6.469z M3,1.5C2.173,1.5,1.5,2.173,1.5,3S2.173,4.5,3,4.5S4.5,3.827,4.5,3S3.827,1.5,3,1.5z"/>
	<path d="M3,24c-1.654,0-3-1.346-3-3s1.346-3,3-3c0.706,0,1.373,0.242,1.909,0.689l1.4-1.016c0.129-0.094,0.281-0.143,0.44-0.143
		c0.24,0,0.467,0.116,0.607,0.31c0.118,0.162,0.165,0.36,0.134,0.558c-0.031,0.198-0.138,0.371-0.3,0.489l-1.4,1.016
		C5.928,20.252,6,20.625,6,21C6,22.654,4.654,24,3,24z M3,19.5c-0.827,0-1.5,0.673-1.5,1.5s0.673,1.5,1.5,1.5s1.5-0.673,1.5-1.5
		S3.827,19.5,3,19.5z"/>
	<path d="M17.25,6.469c-0.24,0-0.467-0.116-0.607-0.31C16.4,5.824,16.475,5.355,16.81,5.112l1.4-1.015C18.072,3.748,18,3.374,18,3
		c0-1.654,1.346-3,3-3s3,1.346,3,3s-1.346,3-3,3c-0.706,0-1.373-0.243-1.909-0.689l-1.4,1.015C17.561,6.42,17.409,6.469,17.25,6.469
		z M21,1.5c-0.827,0-1.5,0.673-1.5,1.5s0.673,1.5,1.5,1.5s1.5-0.673,1.5-1.5S21.827,1.5,21,1.5z"/>
	<path d="M21,24c-1.654,0-3-1.346-3-3c0-0.375,0.072-0.748,0.209-1.097l-1.4-1.016c-0.162-0.117-0.269-0.291-0.3-0.489
		c-0.031-0.198,0.016-0.396,0.134-0.558c0.141-0.194,0.368-0.31,0.607-0.31c0.159,0,0.312,0.05,0.441,0.143l1.4,1.016
		C19.627,18.242,20.294,18,21,18c1.654,0,3,1.346,3,3S22.654,24,21,24z M21,19.5c-0.827,0-1.5,0.673-1.5,1.5s0.673,1.5,1.5,1.5
		s1.5-0.673,1.5-1.5S21.827,19.5,21,19.5z"/>
	<path d="M12,11.25c-1.861,0-3.375-1.514-3.375-3.375S10.139,4.5,12,4.5c1.861,0,3.375,1.514,3.375,3.375S13.861,11.25,12,11.25z
		 M12,6c-1.034,0-1.875,0.841-1.875,1.875S10.966,9.75,12,9.75s1.875-0.841,1.875-1.875S13.034,6,12,6z"/>
	<path d="M7.5,16.5c-0.414,0-0.75-0.336-0.75-0.75c0-2.895,2.355-5.25,5.25-5.25c2.895,0,5.25,2.355,5.25,5.25
		c0,0.414-0.336,0.75-0.75,0.75H7.5z M15.674,15c-0.352-1.712-1.892-3-3.674-3c-1.782,0-3.322,1.288-3.674,3H15.674z"/>
</g>
</svg>
