<?xml version="1.0" encoding="utf-8"?>
<!-- Generator: Adobe Illustrator 22.1.0, SVG Export Plug-In . SVG Version: 6.00 Build 0)  -->
<svg version="1.1" id="Layer_1" xmlns="http://www.w3.org/2000/svg" xmlns:xlink="http://www.w3.org/1999/xlink" x="0px" y="0px"
	 viewBox="0 0 29 29" style="enable-background:new 0 0 29 29;" xml:space="preserve">
<style type="text/css">
	.st0{fill:url(#SVGID_1_);}
	.st1{fill:#FFFFFF;}
</style>
<g>
	
		<radialGradient id="SVGID_1_" cx="14.5" cy="15.5" r="14.5" gradientTransform="matrix(1 0 0 -1 0 30)" gradientUnits="userSpaceOnUse">
		<stop  offset="0" style="stop-color:#C7C7C7"/>
		<stop  offset="0.2692" style="stop-color:#C7C7C7"/>
		<stop  offset="0.4828" style="stop-color:#C4C4C5"/>
		<stop  offset="1" style="stop-color:#B3B3B3"/>
	</radialGradient>
	<path class="st0" d="M26.2,0H2.8C1.3,0,0,1.3,0,2.8v23.3C0,27.7,1.3,29,2.8,29h23.3c1.6,0,2.8-1.3,2.8-2.8V2.8
		C29,1.3,27.7,0,26.2,0z"/>
	<path class="st1" d="M25.1,15.3c-0.1-0.8-0.3-1.7-0.5-2.5c-0.3-1.8-0.6-3.6-1-5.4c0-0.4-0.2-0.5-0.5-0.4c-1.1,0.3-2.3,0.5-3.4,0.9
		c-1,0.3-1.9,0.1-2.8-0.5c-0.2-0.1-0.5-0.3-0.7-0.5c-0.5-0.3-0.9-0.5-1.4-0.7c-0.5-0.3-1-0.3-1.5,0c-0.1,0.1-0.2,0.2-0.1,0.4
		c0.1,0.2,0.3,0.2,0.5,0.1c0.5-0.3,0.9-0.2,1.4,0c0.5,0.3,1.1,0.6,1.6,1c0.3,0.2,0.6,0.4,1,0.6c-0.1,0-0.1,0.1-0.2,0.1
		c-2.3,0.6-4.7,1.2-7,1.7c-0.6,0.1-1.1,0-1.6-0.3C8.1,9.5,7.4,9.1,6.7,8.7C6.3,8.5,5.9,8.6,5.5,8.8c-0.1,0-0.1,0.1-0.1,0.3
		c0,0.1,0.1,0.1,0.3,0.1c0.1,0,0.3,0,0.5-0.1s0.3-0.1,0.6,0c0.6,0.3,1.1,0.6,1.7,1c0.1,0.1,0.5,0.1,0.4,0.3c0,0.2-0.3,0.2-0.5,0.3
		C7.3,11,6.1,11.3,5,11.5c-0.4,0.1-0.5,0.2-0.6,0.6C4.2,13.6,4.1,15,4,16.4c0,0.5-0.1,1-0.1,1.4c0,0.3,0.1,0.5,0.5,0.5
		c0.1,0,0.3,0,0.5,0c0.9-0.1,1.9-0.2,2.8-0.3c1.5-0.1,3-0.3,4.5-0.5c1.9-0.3,3.6,0,5.2,1.1c1.3,0.8,2.2,1.9,3,3.2
		c0.2,0.4,0.5,0.8,0.7,1.2c0.1-0.3,0.1-0.6,0-0.9c-0.2-1.2-0.2-2.4-0.1-3.6c0.2-1.2,0.9-2,2.1-2.2c0.5-0.1,0.9-0.1,1.4-0.1
		C25.1,16.1,25.2,15.9,25.1,15.3z M22.9,14.8c-1.7,0.2-3.4,0.5-5.2,0.7c-2.1,0.3-4.3,0.6-6.4,0.9c-2,0.3-4,0.6-6,0.8
		c-0.1,0-0.1,0-0.2,0c-0.4,0-0.5-0.1-0.4-0.4c0.1-1.1,0.1-2.3,0.2-3.4c0-0.3,0-0.6,0-0.8c0-0.5,0.1-0.6,0.6-0.8
		c3.1-0.7,6.2-1.4,9.3-2.1c2.3-0.5,4.6-1,6.9-1.6c0.1,0,0.1,0,0.2,0c0.4-0.1,0.6,0,0.6,0.4c0.1,1.1,0.3,2.2,0.5,3.4
		c0.1,0.7,0.2,1.4,0.3,2.2C23.5,14.6,23.4,14.7,22.9,14.8z"/>
</g>
</svg>
